<svg version="1.1" id="Layer_1" xmlns="http://www.w3.org/2000/svg" xmlns:xlink="http://www.w3.org/1999/xlink" x="0px" y="0px"
	 width="100%" viewBox="0 0 340 340" enable-background="new 0 0 340 340" xml:space="preserve">
<path fill="#FEFFFF" opacity="1.000000" stroke="none" 
	d="
M198.000000,341.000000 
	C132.000015,341.000000 66.500023,341.000000 1.000026,341.000000 
	C1.000018,227.666702 1.000018,114.333397 1.000009,1.000072 
	C114.333282,1.000048 227.666565,1.000048 340.999878,1.000024 
	C340.999939,114.333260 340.999939,227.666519 340.999969,340.999878 
	C293.500000,341.000000 246.000000,341.000000 198.000000,341.000000 
M235.770584,54.419037 
	C235.523193,54.183075 235.228546,54.065186 234.962875,54.013634 
	C234.962875,54.013634 234.936249,54.101833 234.965714,53.306961 
	C233.248245,47.991928 228.628967,49.590721 224.979111,49.011066 
	C224.979111,49.011066 224.929214,49.107792 224.956284,48.345634 
	C223.641815,46.901901 222.327347,45.458168 221.532242,43.581158 
	C220.051834,42.116264 218.673706,40.502296 216.983780,39.342777 
	C216.722000,39.163155 215.032379,41.064491 213.338196,42.098854 
	C212.880783,42.777973 212.423386,43.457092 211.296890,44.145821 
	C210.494705,43.855061 209.692505,43.564301 208.884338,42.480263 
	C207.651047,41.655281 206.452744,40.770588 205.174774,40.021862 
	C203.861176,39.252274 202.469757,38.615559 201.112518,37.920444 
	C199.215302,36.948769 197.348557,35.215149 195.415726,35.138107 
	C187.437347,34.820099 179.427979,34.742287 171.450989,35.077057 
	C163.378235,35.415848 155.312805,36.200970 147.289932,37.169525 
	C146.062057,37.317757 145.080734,39.508160 143.272186,40.955242 
	C142.536072,41.027103 141.799973,41.098965 140.780167,40.672180 
	C140.182312,41.044392 139.584473,41.416603 138.374802,42.041653 
	C137.936676,42.079029 137.498550,42.116405 136.543655,41.526066 
	C134.045761,41.715584 131.516495,41.728714 129.062515,42.165150 
	C127.730873,42.401985 126.571152,43.476212 125.257393,43.968639 
	C122.091568,45.155266 118.808510,46.052071 115.703697,47.373497 
	C109.970528,49.813564 104.323868,52.458084 98.655937,55.049721 
	C95.796638,56.357132 92.671501,57.341457 90.217529,59.199528 
	C88.052261,60.838997 86.509743,63.393936 84.955048,65.720276 
	C83.442001,67.984283 82.262543,70.471230 80.944595,72.950233 
	C80.944595,72.950233 80.855576,72.935051 80.104897,72.961319 
	C75.437080,73.534195 72.997154,76.123695 72.952118,80.954376 
	C72.952118,80.954376 72.871323,80.941872 72.103859,80.978363 
	C71.362228,82.136475 70.620598,83.294579 69.677818,84.785637 
	C69.677818,84.785637 69.308090,84.906548 68.932320,84.581055 
	C68.932320,84.581055 68.588272,84.932648 68.588272,84.932648 
	C68.588272,84.932648 68.912827,85.305473 68.844337,85.701668 
	C68.844337,85.701668 68.540443,85.964935 67.900146,85.484726 
	C61.400780,88.017509 55.168041,95.986763 55.531010,99.505363 
	C53.582439,102.987930 52.213898,105.189331 51.090622,107.509468 
	C49.943588,109.878670 49.067062,112.377312 48.019638,114.796570 
	C45.719860,120.108406 42.784607,125.236023 41.228329,130.754578 
	C39.495052,136.900742 38.983894,143.394104 37.980030,149.742523 
	C37.363445,153.641800 36.652050,157.536972 36.284416,161.462189 
	C35.747883,167.190704 34.494827,173.108490 35.412601,178.635864 
	C36.149963,183.076675 36.048405,186.699844 34.465416,190.795349 
	C33.829647,192.440186 34.836437,194.986237 35.669342,196.868179 
	C36.831589,199.494293 38.558609,201.866989 39.994083,204.376633 
	C41.422852,206.874588 42.790001,209.407791 44.669498,212.451324 
	C45.066181,213.544098 45.348152,214.696106 45.877094,215.720596 
	C51.884777,227.356842 57.365520,239.319702 64.191635,250.457001 
	C67.887825,256.487610 74.296036,260.786285 78.748383,266.442780 
	C83.190300,272.086029 88.696426,276.043121 94.589775,279.898224 
	C138.828949,308.836975 184.801041,311.923553 232.279648,288.926697 
	C244.213058,283.146606 255.249893,275.676788 263.885651,265.160645 
	C266.436401,262.054504 269.869354,259.672852 273.686401,256.974823 
	C277.544281,256.268127 281.401398,255.589752 281.071289,250.240479 
	C281.035522,249.660812 281.327576,248.760635 281.762787,248.497559 
	C287.657745,244.934387 289.199921,239.386093 289.000000,233.000000 
	C289.000000,233.000000 289.003265,233.001541 289.776703,232.999023 
	C295.046692,231.986557 297.217865,228.975723 296.705872,224.272186 
	C296.492859,222.315338 296.971863,220.054489 297.816254,218.250153 
	C301.812256,209.711349 304.898682,200.946671 304.972931,191.410233 
	C305.072723,178.586914 305.139160,165.759689 304.906616,152.939819 
	C304.842926,149.428375 303.376923,145.961487 303.073120,142.429550 
	C302.804413,139.305969 303.480408,136.106583 303.287018,132.968536 
	C303.204193,131.624634 302.262848,129.948715 301.176514,129.171738 
	C300.285492,128.534439 298.602264,129.004745 296.994232,128.380234 
	C296.933990,127.943565 296.873749,127.506905 297.438293,126.583900 
	C297.921631,124.060555 298.404968,121.537209 298.860901,119.157005 
	C296.123505,117.027031 293.548340,115.023277 291.002411,113.003235 
	C291.002411,113.003235 290.979126,113.029739 290.890533,112.622826 
	C290.776154,112.354736 290.587402,112.158012 289.936523,111.481010 
	C289.625641,110.654228 289.314758,109.827454 289.567047,108.731171 
	C289.710144,107.489586 289.853241,106.247993 290.008728,104.257729 
	C289.773499,102.301392 289.627075,100.329254 289.282532,98.392357 
	C288.748718,95.391396 288.079773,92.414467 287.468109,89.427353 
	C287.692139,89.392334 287.916168,89.357315 288.140198,89.322296 
	C287.091827,87.545731 286.043488,85.769157 284.982391,83.272682 
	C284.532501,82.569260 284.082642,81.865829 283.632751,81.162399 
	C283.089722,81.774391 282.546692,82.386383 281.502441,82.999443 
	C281.335358,82.999733 281.168304,83.000023 280.821411,82.663200 
	C280.547211,82.780045 280.272980,82.896889 279.782501,83.445541 
	C279.584106,83.714546 279.325317,83.898643 278.434143,84.405922 
	C277.332489,84.488914 275.669281,85.066452 275.229218,84.566788 
	C273.580292,82.694443 272.331177,80.470024 270.226807,77.322609 
	C270.317841,77.291977 271.523102,76.886345 273.347351,76.272415 
	C269.007263,74.019333 268.268646,69.063835 262.364594,69.818832 
	C259.694489,70.160286 255.546829,65.849533 253.511734,62.713463 
	C250.048370,57.376522 245.235840,57.040031 239.365570,56.964775 
	C238.913803,56.620312 238.462036,56.275848 237.711472,55.474068 
	C237.210693,55.286442 236.709930,55.098816 236.073273,54.954437 
	C236.073273,54.954437 236.053711,54.813183 235.770584,54.419037 
M75.718475,272.764404 
	C76.317284,272.626648 77.391937,272.585327 77.442406,272.336395 
	C78.048302,269.347931 71.939743,263.353485 67.666924,263.746887 
	C70.405823,266.942474 72.755295,269.683716 75.718475,272.764404 
M41.402336,221.812073 
	C42.227486,221.836029 43.052639,221.859985 43.877789,221.883942 
	C43.230507,219.277649 42.583221,216.671341 41.775120,213.417511 
	C37.301994,216.910919 39.950245,218.995392 41.402336,221.812073 
z"/>
<path fill="#0430A2" opacity="1.000000" stroke="none" 
	d="
M296.813507,127.070236 
	C296.873749,127.506905 296.933990,127.943565 297.169006,129.049835 
	C304.515350,152.126770 306.390717,174.971542 300.887360,197.868790 
	C298.009979,209.840256 293.032349,221.306900 289.003265,233.001541 
	C289.003265,233.001541 289.000000,233.000000 288.714661,233.187851 
	C283.252228,241.236862 278.075104,249.098007 272.898010,256.959167 
	C269.869354,259.672852 266.436401,262.054504 263.885651,265.160645 
	C255.249893,275.676788 244.213058,283.146606 232.279648,288.926697 
	C184.801041,311.923553 138.828949,308.836975 94.589775,279.898224 
	C88.696426,276.043121 83.190300,272.086029 78.748383,266.442780 
	C74.296036,260.786285 67.887825,256.487610 64.191635,250.457001 
	C57.365520,239.319702 51.884777,227.356842 45.877094,215.720596 
	C45.348152,214.696106 45.066181,213.544098 44.423393,211.787323 
	C36.581310,185.876663 36.048527,160.515701 42.992664,135.046936 
	C47.956223,116.842247 56.970463,100.735985 68.540443,85.964935 
	C68.540443,85.964935 68.844337,85.701668 68.947845,85.441391 
	C69.051361,85.181122 69.308090,84.906548 69.308090,84.906548 
	C69.308090,84.906548 69.677818,84.785637 70.008781,84.454613 
	C71.183609,83.063011 72.027466,82.002441 72.871323,80.941872 
	C72.871323,80.941872 72.952118,80.954376 73.286957,80.861755 
	C76.033051,78.157776 78.444313,75.546410 80.855576,72.935051 
	C80.855576,72.935051 80.944595,72.950233 81.254379,72.795654 
	C97.579720,57.958447 116.381218,48.347118 137.060425,42.153782 
	C137.498550,42.116405 137.936676,42.079029 138.969727,41.964237 
	C140.064392,41.648159 140.564133,41.409492 141.063858,41.170822 
	C141.799973,41.098965 142.536072,41.027103 144.032349,40.882690 
	C152.365387,39.915306 159.916672,38.628639 167.515762,38.210548 
	C181.565231,37.437580 195.289673,40.010860 208.890320,43.273544 
	C209.692505,43.564301 210.494705,43.855061 211.871689,44.400536 
	C216.607391,46.139427 220.768311,47.623611 224.929214,49.107796 
	C224.929214,49.107792 224.979111,49.011066 225.126801,49.338375 
	C228.495071,51.144398 231.715652,52.623116 234.936249,54.101830 
	C234.936249,54.101833 234.962875,54.013634 235.038986,54.265923 
	C235.427963,54.616539 235.740845,54.714863 236.053711,54.813187 
	C236.053711,54.813183 236.073273,54.954437 236.268707,55.181992 
	C236.979507,55.583496 237.494888,55.757442 238.010269,55.931389 
	C238.462036,56.275848 238.913803,56.620312 239.841339,57.280563 
	C254.109009,66.068642 265.456268,77.299019 276.178589,89.561615 
	C276.404175,89.881805 276.556244,89.957825 276.839539,90.357574 
	C278.252380,93.009773 279.534027,95.338257 280.506104,97.621292 
	C279.794556,97.662399 279.392548,97.748947 278.537720,97.704376 
	C263.725830,97.660583 249.366714,97.747917 234.676468,97.718864 
	C233.412247,97.626526 232.479156,97.650581 231.330719,97.455383 
	C230.396698,96.867119 229.678024,96.498108 228.757996,95.855835 
	C226.844513,94.449921 225.132385,93.317268 223.350372,92.099808 
	C223.280457,92.014984 223.062485,91.986481 222.910828,91.716110 
	C222.042740,91.049301 221.326309,90.652863 220.460419,90.173302 
	C220.310974,90.090179 219.969147,90.101334 219.856125,89.890030 
	C218.183502,89.089661 216.623917,88.500587 215.032867,87.951202 
	C215.001419,87.990883 215.083878,87.932190 214.974716,87.596100 
	C210.241379,85.227051 205.617203,83.194099 200.756927,81.065819 
	C200.351288,80.978424 200.181732,80.986351 199.746140,80.731201 
	C193.325043,79.208694 187.223999,77.348465 181.005966,76.789352 
	C146.078018,73.648727 117.639725,85.951744 95.543152,113.549316 
	C95.040558,114.186882 94.778755,114.681000 94.256699,115.410416 
	C91.363174,120.103889 88.729919,124.562057 85.863281,129.287674 
	C84.366035,132.842224 83.102165,136.129349 81.559845,139.694641 
	C74.682281,159.968002 73.785667,179.991928 80.968964,200.406387 
	C81.375938,201.834641 81.792503,202.913147 82.220474,204.347260 
	C84.117226,208.515915 86.002579,212.328934 87.926392,216.091522 
	C87.964859,216.041107 87.851601,216.098206 87.884148,216.451355 
	C91.365105,222.107025 94.813507,227.409546 97.866516,232.803619 
	C92.039871,233.589905 91.603539,229.283554 90.593102,225.173508 
	C87.671021,232.770035 91.175827,237.516953 98.309044,236.520599 
	C98.309044,235.270401 98.309044,234.015564 98.629349,232.849930 
	C104.263504,237.676483 109.577370,242.413849 114.913269,247.105103 
	C114.935310,247.059006 114.838188,247.090836 114.934402,247.341125 
	C115.355667,247.716309 115.680710,247.841232 116.003639,247.986572 
	C116.001526,248.006989 116.039078,247.990433 116.110123,248.202621 
	C116.374435,248.692032 116.637192,248.799713 117.107895,248.901947 
	C117.246353,249.066040 117.672592,249.118103 117.810982,249.370407 
	C118.297661,249.753723 118.645950,249.884735 118.996300,250.006744 
	C118.998360,249.997757 118.981644,250.008560 119.073288,250.215546 
	C119.364929,250.700714 119.632454,250.804001 120.131302,250.891769 
	C120.295097,251.051132 120.750099,251.094498 120.874725,251.344086 
	C121.335625,251.713852 121.671890,251.834030 122.011642,251.982208 
	C122.015137,252.010178 122.063560,251.981277 122.142120,252.171417 
	C122.405052,252.611511 122.649086,252.703873 123.143669,252.817230 
	C123.507523,253.016815 123.680489,253.037872 124.041733,253.333511 
	C125.433487,254.147491 126.636963,254.686905 127.861755,255.173660 
	C127.883072,255.121002 127.776779,255.161133 127.887634,255.399216 
	C128.326935,255.714645 128.655380,255.792007 129.245575,256.118774 
	C159.131821,269.970551 188.441360,269.332489 217.133026,253.846008 
	C235.924927,243.702988 249.047607,228.090073 258.569763,208.917511 
	C259.126862,207.780884 259.333252,206.720795 259.508484,205.718918 
	C259.477356,205.777130 259.505676,205.647614 259.868896,205.621094 
	C261.674530,201.677689 263.754395,197.867371 264.430634,193.822372 
	C265.981323,184.546875 266.977661,175.169144 267.859619,165.800980 
	C268.002319,164.285248 266.402039,162.605408 265.411011,160.699310 
	C265.222534,159.920654 265.230469,159.444092 265.479004,158.646576 
	C265.608398,153.763565 268.026611,148.585373 262.663727,145.282867 
	C262.773682,145.236328 262.767548,145.475037 262.615692,145.073181 
	C261.358246,144.448196 260.252777,144.030838 259.147003,144.029953 
	C218.118546,143.996979 177.090042,143.990112 136.061661,144.059860 
	C134.768494,144.062057 133.476746,144.907562 132.357346,145.622818 
	C136.352524,151.298553 140.174683,156.711411 143.877121,162.391846 
	C144.676422,163.529892 145.595444,164.400345 146.566223,165.348267 
	C146.617966,165.425735 146.717072,165.583511 146.543915,165.914062 
	C146.980789,166.780029 147.590820,167.315445 148.146286,167.870880 
	C148.091736,167.890884 148.144272,167.787231 148.192871,168.053619 
	C148.515045,168.540512 148.788620,168.761002 149.306763,169.078445 
	C149.687759,169.486618 149.824188,169.797852 149.965363,170.520218 
	C149.530731,175.074570 150.760559,177.788132 155.531616,177.496948 
	C155.509888,177.543915 155.610733,177.567184 155.435577,177.940399 
	C155.779327,181.367844 155.859772,184.816589 160.604538,184.249695 
	C160.696320,184.348068 160.781876,184.603226 160.580902,184.934555 
	C163.676651,190.561371 166.973389,195.856873 170.270111,201.152359 
	C171.016983,201.129761 171.763855,201.107162 172.510727,201.084564 
	C175.503799,195.567917 178.496872,190.051254 181.636261,184.505493 
	C181.782562,184.476364 181.484436,184.488190 181.820007,184.512573 
	C182.407410,183.963913 182.659225,183.390884 182.993881,182.490479 
	C186.835144,177.079163 191.366730,172.386658 194.182449,166.825394 
	C199.217804,156.880157 206.803955,154.225372 217.309967,155.267776 
	C225.769012,156.107086 234.377762,155.437698 243.832932,155.437698 
	C219.332336,188.686096 195.472916,221.064423 171.314392,253.848618 
	C167.306519,248.659668 163.570892,243.823196 159.809952,238.730042 
	C159.521713,238.263092 159.258820,238.052811 158.991455,237.729706 
	C158.987000,237.616882 158.831848,237.452835 158.710999,237.149261 
	C157.753036,235.865540 156.915909,234.885422 156.043839,233.941162 
	C156.008881,233.977036 156.103333,233.943649 156.054901,233.662033 
	C155.711121,233.159454 155.415771,232.938492 155.084351,232.509644 
	C155.048279,232.301758 154.729935,232.024780 154.628754,231.713257 
	C151.348190,227.274094 148.168777,223.146454 144.995422,219.009613 
	C145.001480,219.000427 144.981430,219.007584 144.939072,218.743378 
	C144.615936,218.276367 144.335175,218.073593 144.002136,217.589294 
	C143.589355,216.883057 143.228821,216.458328 142.844696,215.781052 
	C142.550201,215.346390 142.279297,215.164291 142.003494,214.990723 
	C141.998596,214.999252 142.015213,214.991425 141.943558,214.645874 
	C140.624435,212.774139 139.376968,211.247940 138.108582,209.515533 
	C137.981628,209.013702 137.771927,208.855484 137.334778,208.511475 
	C135.759079,206.316238 134.307159,204.444229 132.807877,202.444153 
	C132.760513,202.316086 132.583786,202.107895 132.454010,201.824631 
	C125.893150,193.008072 119.462074,184.474777 113.001678,175.709183 
	C112.860603,175.149872 112.635574,174.951080 112.205345,174.543488 
	C109.248283,170.352371 106.506493,166.398788 103.493263,162.664185 
	C96.427727,153.907196 93.662804,144.103363 95.920486,132.720398 
	C96.056183,132.058029 96.081940,131.669022 96.372612,131.029236 
	C98.666023,126.848381 100.694519,122.918289 103.005997,118.825394 
	C103.965721,117.821632 104.642471,116.980659 105.632812,116.026138 
	C112.754623,109.881577 120.800079,107.511238 129.784973,107.518982 
	C181.176682,107.563278 232.568451,107.523186 283.960083,107.596474 
	C285.641998,107.598869 287.322632,108.512062 289.003845,109.000679 
	C289.314758,109.827454 289.625641,110.654228 290.104401,111.985016 
	C290.415131,112.790535 290.650726,112.970772 290.979126,113.029739 
	C290.979126,113.029739 291.002411,113.003235 291.026855,113.376617 
	C292.972046,118.190086 294.892792,122.630157 296.813507,127.070236 
M88.111427,271.276947 
	C88.197784,271.326141 88.284149,271.375336 88.370506,271.424530 
	C88.246498,271.283417 88.122490,271.142334 88.074226,270.290863 
	C87.660477,268.594604 87.246727,266.898376 86.832970,265.202087 
	C85.636703,265.776825 84.440437,266.351532 82.574974,267.247742 
	C85.046608,268.956329 86.523895,269.977539 88.111427,271.276947 
M299.002441,165.619110 
	C299.002441,171.586655 299.002441,177.554199 299.002441,184.675110 
	C303.153778,180.014725 302.775574,163.674652 298.230927,150.242966 
	C298.488098,155.047531 298.745270,159.852112 299.002441,165.619110 
M129.554520,262.493439 
	C131.785706,265.641998 134.660461,267.525360 138.671890,266.838776 
	C139.359619,266.721039 140.272552,266.046082 140.459030,265.437744 
	C140.621826,264.906677 140.012512,263.599792 139.563797,263.506775 
	C136.339798,262.838562 133.069717,262.392700 129.554520,262.493439 
z"/>
<path fill="#F1F9FB" opacity="1.000000" stroke="none" 
	d="
M289.285461,108.865921 
	C287.322632,108.512062 285.641998,107.598869 283.960083,107.596474 
	C232.568451,107.523186 181.176682,107.563278 129.784973,107.518982 
	C120.800079,107.511238 112.754623,109.881577 105.324478,115.853928 
	C104.135841,114.528114 103.569138,113.260971 103.400444,111.994896 
	C106.044403,110.824036 108.290359,109.652115 110.935989,108.271645 
	C105.949852,103.757332 104.599152,107.211403 102.636536,110.040497 
	C101.439102,111.145592 100.803391,112.594917 99.710281,113.160973 
	C98.644920,113.712662 97.111732,113.360939 95.783943,113.405853 
	C117.639725,85.951744 146.078018,73.648727 181.005966,76.789352 
	C187.223999,77.348465 193.325043,79.208694 199.299286,80.743744 
	C185.780991,79.989822 172.482117,77.323105 159.066757,79.108231 
	C153.106125,79.901390 147.196609,81.556503 141.465866,83.436127 
	C137.465973,84.748055 133.809204,87.106049 129.621399,89.003021 
	C127.827896,90.337761 126.412148,91.666283 124.663689,92.995842 
	C123.887321,92.997810 123.443657,92.998749 122.657639,93.035652 
	C120.153259,94.179672 117.914368,95.167595 115.877304,96.470963 
	C115.286728,96.848831 115.274521,98.130653 114.694641,99.145859 
	C112.920059,101.170494 111.448029,103.047348 109.894814,105.027710 
	C115.480461,107.628357 120.170868,106.040024 124.868187,104.167877 
	C126.188820,103.641525 127.616112,103.382744 128.997238,103.000763 
	C129.000000,103.000305 128.999268,103.005608 129.089859,103.401978 
	C131.012512,104.199203 132.843750,104.945099 134.676758,104.949448 
	C164.784424,105.020752 194.892303,104.998566 225.468781,104.998566 
	C247.290405,105.001961 268.643372,105.004181 289.996338,105.006409 
	C289.853241,106.247993 289.710144,107.489586 289.285461,108.865921 
z"/>
<path fill="#FEFDFE" opacity="1.000000" stroke="none" 
	d="
M124.996399,92.994812 
	C126.412148,91.666283 127.827896,90.337761 129.656860,89.351372 
	C130.652313,90.978729 131.234558,92.263954 131.460266,92.762177 
	C130.126343,95.007256 129.191650,96.580406 128.256958,98.153549 
	C130.156723,98.769028 132.054199,99.912292 133.956604,99.920532 
	C160.903503,100.037262 187.851166,99.975151 214.798431,100.037300 
	C217.586517,100.043724 220.390854,100.896843 223.155487,100.750328 
	C225.461273,100.628128 227.719879,99.615715 230.001099,98.754181 
	C230.002823,98.510796 230.009064,98.024063 230.400055,97.966324 
	C231.042725,97.830597 231.294403,97.752609 231.546082,97.674622 
	C232.479156,97.650581 233.412247,97.626526 234.751282,98.128860 
	C236.120636,99.101257 237.081406,99.928818 238.047836,99.935516 
	C250.628754,100.022736 263.211090,100.045959 275.790894,99.900085 
	C276.865265,99.887627 277.924347,98.554886 278.990540,97.835495 
	C279.392548,97.748947 279.794556,97.662399 280.737183,97.945312 
	C283.008972,98.480034 284.740143,98.645302 287.508545,98.909584 
	C284.682678,96.324074 282.966553,94.628082 281.112579,93.099159 
	C279.737244,91.964943 278.182922,91.047722 276.708344,90.033844 
	C276.556244,89.957825 276.404175,89.881805 276.551575,89.440750 
	C279.855042,88.353127 279.834930,86.347092 279.006104,83.997841 
	C279.325317,83.898643 279.584106,83.714546 280.141235,83.224701 
	C280.667023,83.002678 280.834106,83.001495 281.001221,83.000305 
	C281.168304,83.000023 281.335358,82.999733 282.047058,83.124100 
	C283.392792,83.496704 284.193970,83.744652 284.995117,83.992592 
	C286.043488,85.769157 287.091827,87.545731 288.140198,89.322296 
	C287.916168,89.357315 287.692139,89.392334 287.468109,89.427353 
	C288.079773,92.414467 288.748718,95.391396 289.282532,98.392357 
	C289.627075,100.329254 289.773499,102.301392 290.002533,104.632065 
	C268.643372,105.004181 247.290405,105.001961 225.377625,104.602295 
	C222.986237,103.803238 221.155472,103.055878 219.322983,103.051575 
	C189.215210,102.980827 159.107208,103.003738 128.999268,103.005608 
	C128.999268,103.005608 129.000000,103.000305 128.939362,102.639893 
	C125.016396,97.950134 119.824028,99.247246 114.997185,98.998085 
	C115.274521,98.130653 115.286728,96.848831 115.877304,96.470963 
	C117.914368,95.167595 120.153259,94.179672 122.662582,93.401031 
	C123.526627,95.076408 124.043381,96.422371 124.560135,97.768326 
	C124.961960,97.643867 125.363792,97.519409 125.765617,97.394943 
	C125.509216,95.928238 125.252808,94.461525 124.996399,92.994812 
z"/>
<path fill="#F1F9FB" opacity="1.000000" stroke="none" 
	d="
M68.220291,85.724831 
	C56.970463,100.735985 47.956223,116.842247 42.992664,135.046936 
	C36.048527,160.515701 36.581310,185.876663 44.180729,211.524429 
	C42.790001,209.407791 41.422852,206.874588 39.994083,204.376633 
	C38.558609,201.866989 36.831589,199.494293 35.669342,196.868179 
	C34.836437,194.986237 33.829647,192.440186 34.465416,190.795349 
	C36.048405,186.699844 36.149963,183.076675 35.412601,178.635864 
	C34.494827,173.108490 35.747883,167.190704 36.284416,161.462189 
	C36.652050,157.536972 37.363445,153.641800 37.980030,149.742523 
	C38.983894,143.394104 39.495052,136.900742 41.228329,130.754578 
	C42.784607,125.236023 45.719860,120.108406 48.019638,114.796570 
	C49.067062,112.377312 49.943588,109.878670 51.090622,107.509468 
	C52.213898,105.189331 53.582439,102.987930 55.531010,99.505363 
	C55.168041,95.986763 61.400780,88.017509 68.220291,85.724831 
z"/>
<path fill="#F1F9FB" opacity="1.000000" stroke="none" 
	d="
M289.389984,233.000275 
	C293.032349,221.306900 298.009979,209.840256 300.887360,197.868790 
	C306.390717,174.971542 304.515350,152.126770 297.306976,129.351761 
	C298.602264,129.004745 300.285492,128.534439 301.176514,129.171738 
	C302.262848,129.948715 303.204193,131.624634 303.287018,132.968536 
	C303.480408,136.106583 302.804413,139.305969 303.073120,142.429550 
	C303.376923,145.961487 304.842926,149.428375 304.906616,152.939819 
	C305.139160,165.759689 305.072723,178.586914 304.972931,191.410233 
	C304.898682,200.946671 301.812256,209.711349 297.816254,218.250153 
	C296.971863,220.054489 296.492859,222.315338 296.705872,224.272186 
	C297.217865,228.975723 295.046692,231.986557 289.389984,233.000275 
z"/>
<path fill="#F1F9FB" opacity="1.000000" stroke="none" 
	d="
M208.887329,42.876904 
	C195.289673,40.010860 181.565231,37.437580 167.515762,38.210548 
	C159.916672,38.628639 152.365387,39.915306 144.388947,40.782097 
	C145.080734,39.508160 146.062057,37.317757 147.289932,37.169525 
	C155.312805,36.200970 163.378235,35.415848 171.450989,35.077057 
	C179.427979,34.742287 187.437347,34.820099 195.415726,35.138107 
	C197.348557,35.215149 199.215302,36.948769 201.112518,37.920444 
	C202.469757,38.615559 203.861176,39.252274 205.174774,40.021862 
	C206.452744,40.770588 207.651047,41.655281 208.887329,42.876904 
z"/>
<path fill="#F1F9FB" opacity="1.000000" stroke="none" 
	d="
M136.802032,41.839924 
	C116.381218,48.347118 97.579720,57.958447 81.250389,72.750671 
	C82.262543,70.471230 83.442001,67.984283 84.955048,65.720276 
	C86.509743,63.393936 88.052261,60.838997 90.217529,59.199528 
	C92.671501,57.341457 95.796638,56.357132 98.655937,55.049721 
	C104.323868,52.458084 109.970528,49.813564 115.703697,47.373497 
	C118.808510,46.052071 122.091568,45.155266 125.257393,43.968639 
	C126.571152,43.476212 127.730873,42.401985 129.062515,42.165150 
	C131.516495,41.728714 134.045761,41.715584 136.802032,41.839924 
z"/>
<path fill="#F1F9FB" opacity="1.000000" stroke="none" 
	d="
M278.720123,84.201881 
	C279.834930,86.347092 279.855042,88.353127 276.478027,89.196579 
	C265.456268,77.299019 254.109009,66.068642 240.128342,57.310871 
	C245.235840,57.040031 250.048370,57.376522 253.511734,62.713463 
	C255.546829,65.849533 259.694489,70.160286 262.364594,69.818832 
	C268.268646,69.063835 269.007263,74.019333 273.347351,76.272415 
	C271.523102,76.886345 270.317841,77.291977 270.226807,77.322609 
	C272.331177,80.470024 273.580292,82.694443 275.229218,84.566788 
	C275.669281,85.066452 277.332489,84.488914 278.720123,84.201881 
z"/>
<path fill="#F1F9FB" opacity="1.000000" stroke="none" 
	d="
M273.292206,256.966980 
	C278.075104,249.098007 283.252228,241.236862 288.715668,233.189941 
	C289.199921,239.386093 287.657745,244.934387 281.762787,248.497559 
	C281.327576,248.760635 281.035522,249.660812 281.071289,250.240479 
	C281.401398,255.589752 277.544281,256.268127 273.292206,256.966980 
z"/>
<path fill="#F1F9FB" opacity="1.000000" stroke="none" 
	d="
M297.125916,126.827065 
	C294.892792,122.630157 292.972046,118.190086 291.012207,113.384766 
	C293.548340,115.023277 296.123505,117.027031 298.860901,119.157005 
	C298.404968,121.537209 297.921631,124.060555 297.125916,126.827065 
z"/>
<path fill="#F1F9FB" opacity="1.000000" stroke="none" 
	d="
M224.942749,48.726715 
	C220.768311,47.623611 216.607391,46.139427 212.206238,44.395729 
	C212.423386,43.457092 212.880783,42.777973 214.017883,42.202553 
	C216.802673,42.875648 218.907761,43.445042 221.012863,44.014435 
	C222.327347,45.458168 223.641815,46.901901 224.942749,48.726715 
z"/>
<path fill="#FDFCF2" opacity="1.000000" stroke="none" 
	d="
M75.411621,272.594696 
	C72.755295,269.683716 70.405823,266.942474 67.666924,263.746887 
	C71.939743,263.353485 78.048302,269.347931 77.442406,272.336395 
	C77.391937,272.585327 76.317284,272.626648 75.411621,272.594696 
z"/>
<path fill="#F1F9FB" opacity="1.000000" stroke="none" 
	d="
M80.480240,72.948181 
	C78.444313,75.546410 76.033051,78.157776 73.282600,80.821114 
	C72.997154,76.123695 75.437080,73.534195 80.480240,72.948181 
z"/>
<path fill="#FCFDF2" opacity="1.000000" stroke="none" 
	d="
M41.236023,221.497131 
	C39.950245,218.995392 37.301994,216.910919 41.775120,213.417511 
	C42.583221,216.671341 43.230507,219.277649 43.877789,221.883942 
	C43.052639,221.859985 42.227486,221.836029 41.236023,221.497131 
z"/>
<path fill="#FCFCF0" opacity="1.000000" stroke="none" 
	d="
M221.272552,43.797798 
	C218.907761,43.445042 216.802673,42.875648 214.350311,42.154873 
	C215.032379,41.064491 216.722000,39.163155 216.983780,39.342777 
	C218.673706,40.502296 220.051834,42.116264 221.272552,43.797798 
z"/>
<path fill="#F1F9FB" opacity="1.000000" stroke="none" 
	d="
M234.950989,53.704395 
	C231.715652,52.623116 228.495071,51.144398 225.084747,49.372917 
	C228.628967,49.590721 233.248245,47.991928 234.950989,53.704395 
z"/>
<path fill="#F1F9FB" opacity="1.000000" stroke="none" 
	d="
M72.487595,80.960114 
	C72.027466,82.002441 71.183609,83.063011 70.109352,84.288132 
	C70.620598,83.294579 71.362228,82.136475 72.487595,80.960114 
z"/>
<path fill="#F1F9FB" opacity="1.000000" stroke="none" 
	d="
M284.988770,83.632637 
	C284.193970,83.744652 283.392792,83.496704 282.297668,83.123566 
	C282.546692,82.386383 283.089722,81.774391 283.632751,81.162399 
	C284.082642,81.865829 284.532501,82.569260 284.988770,83.632637 
z"/>
<path fill="#F1F9FB" opacity="1.000000" stroke="none" 
	d="
M140.922012,40.921501 
	C140.564133,41.409492 140.064392,41.648159 139.275635,41.837818 
	C139.584473,41.416603 140.182312,41.044392 140.922012,40.921501 
z"/>
<path fill="#F1F9FB" opacity="1.000000" stroke="none" 
	d="
M237.860870,55.702728 
	C237.494888,55.757442 236.979507,55.583496 236.336639,55.160370 
	C236.709930,55.098816 237.210693,55.286442 237.860870,55.702728 
z"/>
<path fill="#F1F9FB" opacity="1.000000" stroke="none" 
	d="
M235.912140,54.616112 
	C235.740845,54.714863 235.427963,54.616539 235.000870,54.291790 
	C235.228546,54.065186 235.523193,54.183075 235.912140,54.616112 
z"/>
<path fill="#F1F9FB" opacity="1.000000" stroke="none" 
	d="
M280.911316,82.831757 
	C280.834106,83.001495 280.667023,83.002678 280.249390,83.008789 
	C280.272980,82.896889 280.547211,82.780045 280.911316,82.831757 
z"/>
<path fill="#F1F9FB" opacity="1.000000" stroke="none" 
	d="
M69.120209,84.743805 
	C69.308090,84.906548 69.051361,85.181122 68.982094,85.243301 
	C68.912827,85.305473 68.588272,84.932648 68.588272,84.932648 
	C68.588272,84.932648 68.932320,84.581055 69.120209,84.743805 
z"/>
<path fill="#F1F9FB" opacity="1.000000" stroke="none" 
	d="
M290.934814,112.826279 
	C290.650726,112.970772 290.415131,112.790535 290.298279,112.260841 
	C290.587402,112.158012 290.776154,112.354736 290.934814,112.826279 
z"/>
<path fill="#FAFDFD" opacity="1.000000" stroke="none" 
	d="
M103.002441,111.993828 
	C103.569138,113.260971 104.135841,114.528114 105.010880,115.967468 
	C104.642471,116.980659 103.965721,117.821632 102.650055,118.879745 
	C94.898849,120.665138 96.611397,126.509529 96.107697,131.280014 
	C96.081940,131.669022 96.056183,132.058029 95.549446,132.783508 
	C94.445564,135.470612 93.640701,137.792633 93.264755,140.182129 
	C93.020645,141.733734 93.286751,143.401321 93.528877,144.985687 
	C93.937721,147.660812 94.302620,150.372910 95.075066,152.952972 
	C95.727608,155.132492 97.341949,157.061752 97.796722,159.254028 
	C98.499420,162.641449 99.519958,165.352646 102.879982,167.125870 
	C104.139511,167.790573 104.480064,170.155594 105.294533,171.716721 
	C106.038635,173.142990 106.856972,174.530548 107.685478,176.011841 
	C109.434540,175.582779 110.865906,175.231659 112.297272,174.880539 
	C112.635574,174.951080 112.860603,175.149872 112.993736,176.098541 
	C114.968300,180.782486 116.616898,185.031433 118.959908,188.854828 
	C121.327759,192.718765 124.182930,196.343903 127.237709,199.697372 
	C128.445847,201.023636 130.768570,201.334625 132.583786,202.107895 
	C132.583786,202.107895 132.760513,202.316086 132.576721,202.730881 
	C131.058884,207.733383 134.169525,208.363434 137.458542,208.834671 
	C137.771927,208.855484 137.981628,209.013702 138.071564,209.897491 
	C139.375381,211.987564 140.695297,213.489487 142.015213,214.991425 
	C142.015213,214.991425 141.998596,214.999252 142.072067,215.218964 
	C142.310837,215.728836 142.551743,215.927139 142.868271,216.033600 
	C143.228821,216.458328 143.589355,216.883057 144.068176,217.840363 
	C144.451462,218.584488 144.716446,218.796036 144.981430,219.007584 
	C144.981430,219.007584 145.001480,219.000427 144.989212,219.404419 
	C146.271530,222.048553 148.723785,224.340271 148.626709,226.518387 
	C148.404694,231.500137 151.179413,231.895157 154.729935,232.024780 
	C154.729935,232.024780 155.048279,232.301758 155.143524,232.784515 
	C155.526962,233.492737 155.815140,233.718201 156.103333,233.943665 
	C156.103333,233.943649 156.008881,233.977036 156.014450,234.368225 
	C156.957306,235.657227 157.894577,236.555023 158.831848,237.452835 
	C158.831848,237.452835 158.987000,237.616882 159.048065,237.974243 
	C159.259857,238.651245 159.501907,238.869614 159.835281,238.986710 
	C163.570892,243.823196 167.306519,248.659668 171.314392,253.848618 
	C195.472916,221.064423 219.332336,188.686096 243.832932,155.437698 
	C234.377762,155.437698 225.769012,156.107086 217.309967,155.267776 
	C206.803955,154.225372 199.217804,156.880157 194.182449,166.825394 
	C191.366730,172.386658 186.835144,177.079163 182.738312,182.614395 
	C182.094742,183.539856 181.789597,184.014023 181.484436,184.488190 
	C181.484436,184.488190 181.782562,184.476364 181.382050,184.715118 
	C177.824509,189.202209 174.667480,193.450516 171.232162,198.073303 
	C167.630341,193.430664 164.206100,189.016937 160.781876,184.603226 
	C160.781876,184.603226 160.696320,184.348068 160.464813,183.975983 
	C158.692429,181.591675 157.151581,179.579422 155.610733,177.567184 
	C155.610733,177.567184 155.509888,177.543915 155.398285,177.197418 
	C153.511337,174.603638 151.735992,172.356354 149.960632,170.109070 
	C149.824188,169.797852 149.687759,169.486618 149.257355,168.811523 
	C148.690338,168.227524 148.417297,168.007370 148.144272,167.787231 
	C148.144272,167.787231 148.091736,167.890884 148.103928,167.593719 
	C147.649765,166.725555 147.183426,166.154526 146.717072,165.583511 
	C146.717072,165.583511 146.617966,165.425735 146.436554,165.091797 
	C145.502365,163.879974 144.749603,163.002121 143.996841,162.124252 
	C140.174683,156.711411 136.352524,151.298553 132.804291,145.552307 
	C175.318588,145.195526 217.558960,145.169922 259.799316,145.162476 
	C260.788696,145.162308 261.778137,145.366287 262.767548,145.475037 
	C262.767548,145.475037 262.773682,145.236328 262.716278,145.683289 
	C263.518707,150.409332 264.378540,154.688431 265.238403,158.967529 
	C265.230469,159.444092 265.222534,159.920654 265.359863,161.109879 
	C267.113068,176.924789 264.467926,191.444794 259.505676,205.647614 
	C259.505676,205.647614 259.477356,205.777130 259.292206,205.934860 
	C258.811066,207.059738 258.515045,208.026901 258.219055,208.994049 
	C249.047607,228.090073 235.924927,243.702988 217.133026,253.846008 
	C188.441360,269.332489 159.131821,269.970551 129.103592,255.914612 
	C128.438034,255.219971 128.130341,255.120010 127.776779,255.161133 
	C127.776779,255.161133 127.883072,255.121002 127.854797,254.787933 
	C126.502174,253.989563 125.177818,253.524246 123.853462,253.058929 
	C123.680489,253.037872 123.507523,253.016815 123.039398,252.655731 
	C122.555283,252.126984 122.328392,252.015518 122.063560,251.981277 
	C122.063560,251.981277 122.015137,252.010178 121.865402,251.757980 
	C121.393814,251.368698 121.071953,251.231598 120.750099,251.094498 
	C120.750099,251.094498 120.295097,251.051132 120.015320,250.713287 
	C119.527611,250.164062 119.276314,250.041763 118.981644,250.008560 
	C118.981644,250.008560 118.998360,249.997757 118.847717,249.766052 
	C118.355583,249.395599 118.014084,249.256851 117.672592,249.118103 
	C117.672592,249.118103 117.246353,249.066040 116.999969,248.725357 
	C116.559891,248.172668 116.321724,248.041245 116.039078,247.990433 
	C116.039078,247.990433 116.001526,248.006989 115.876358,247.762711 
	C115.446854,247.375900 115.142517,247.233368 114.838188,247.090836 
	C114.838188,247.090836 114.935310,247.059006 114.967194,246.773102 
	C113.670815,244.018692 112.936516,240.750183 110.898781,239.237228 
	C105.575150,235.284637 100.211990,231.671280 96.314705,226.008301 
	C93.891945,222.487885 94.394150,216.148575 87.851601,216.098206 
	C87.851601,216.098206 87.964859,216.041107 87.964592,215.671829 
	C88.471344,206.633820 87.834152,205.381546 82.209076,203.991638 
	C81.792503,202.913147 81.375938,201.834641 80.982788,199.961029 
	C79.860420,189.160294 78.224724,179.177719 77.752502,169.140396 
	C77.468910,163.112656 78.910789,156.987122 79.748817,150.929276 
	C80.282806,147.069199 81.130989,143.252563 81.838295,139.416458 
	C83.102165,136.129349 84.366035,132.842224 86.134018,129.391296 
	C89.191956,127.240593 91.745773,125.253738 94.865761,122.826401 
	C94.779823,120.941429 94.648384,118.058273 94.516953,115.175110 
	C94.778755,114.681000 95.040558,114.186882 95.543152,113.549316 
	C97.111732,113.360939 98.644920,113.712662 99.710281,113.160973 
	C100.803391,112.594917 101.439102,111.145592 102.637589,110.373184 
	C103.000938,111.106964 103.001694,111.550392 103.002441,111.993828 
M213.961945,249.144318 
	C213.075638,249.711899 212.189331,250.279480 211.093567,250.981186 
	C215.693268,253.170883 215.693268,253.170883 217.569046,249.374634 
	C216.541977,249.255066 215.608597,249.146408 213.961945,249.144318 
M120.244698,243.175369 
	C120.411942,243.119873 120.579178,243.064362 120.746422,243.008881 
	C120.578148,242.954773 120.409882,242.900665 120.244698,243.175369 
M209.412247,251.482758 
	C209.412247,251.482758 209.523285,251.416550 209.412247,251.482758 
M87.412682,136.482513 
	C87.412682,136.482513 87.523148,136.416519 87.412682,136.482513 
M94.410904,219.482864 
	C94.410904,219.482864 94.522850,219.415833 94.410904,219.482864 
M101.407890,117.482620 
	C101.407890,117.482620 101.523735,117.412430 101.407890,117.482620 
z"/>
<path fill="#FFFEFE" opacity="1.000000" stroke="none" 
	d="
M229.999390,98.997559 
	C227.719879,99.615715 225.461273,100.628128 223.155487,100.750328 
	C220.390854,100.896843 217.586517,100.043724 214.798431,100.037300 
	C187.851166,99.975151 160.903503,100.037262 133.956604,99.920532 
	C132.054199,99.912292 130.156723,98.769028 128.256958,98.153549 
	C129.191650,96.580406 130.126343,95.007256 131.460266,92.762177 
	C131.234558,92.263954 130.652313,90.978729 130.034607,89.345154 
	C133.809204,87.106049 137.465973,84.748055 141.465866,83.436127 
	C147.196609,81.556503 153.106125,79.901390 159.066757,79.108231 
	C172.482117,77.323105 185.780991,79.989822 199.565323,81.006805 
	C200.181732,80.986351 200.351288,80.978424 200.757141,81.483200 
	C201.100662,83.561813 201.207870,85.127724 201.399872,87.932190 
	C206.273163,87.932190 210.678513,87.932190 215.083878,87.932190 
	C215.083878,87.932190 215.001419,87.990883 215.064941,88.361305 
	C216.742020,89.188263 218.355576,89.644798 219.969147,90.101334 
	C219.969147,90.101334 220.310974,90.090179 220.377136,90.540833 
	C221.316360,91.323158 222.189423,91.654816 223.062485,91.986481 
	C223.062485,91.986481 223.280457,92.014984 223.237366,92.532776 
	C222.761185,98.124176 226.070435,98.915428 229.999390,98.997559 
z"/>
<path fill="#F1F9FB" opacity="1.000000" stroke="none" 
	d="
M112.205345,174.543488 
	C110.865906,175.231659 109.434540,175.582779 107.685478,176.011841 
	C106.856972,174.530548 106.038635,173.142990 105.294533,171.716721 
	C104.480064,170.155594 104.139511,167.790573 102.879982,167.125870 
	C99.519958,165.352646 98.499420,162.641449 97.796722,159.254028 
	C97.341949,157.061752 95.727608,155.132492 95.075066,152.952972 
	C94.302620,150.372910 93.937721,147.660812 93.528877,144.985687 
	C93.286751,143.401321 93.020645,141.733734 93.264755,140.182129 
	C93.640701,137.792633 94.445564,135.470612 95.439499,133.056854 
	C93.662804,144.103363 96.427727,153.907196 103.493263,162.664185 
	C106.506493,166.398788 109.248283,170.352371 112.205345,174.543488 
z"/>
<path fill="#0B2E89" opacity="1.000000" stroke="none" 
	d="
M262.615692,145.073181 
	C261.778137,145.366287 260.788696,145.162308 259.799316,145.162476 
	C217.558960,145.169922 175.318588,145.195526 132.631287,145.289398 
	C133.476746,144.907562 134.768494,144.062057 136.061661,144.059860 
	C177.090042,143.990112 218.118546,143.996979 259.147003,144.029953 
	C260.252777,144.030838 261.358246,144.448196 262.615692,145.073181 
z"/>
<path fill="#F1F9FB" opacity="1.000000" stroke="none" 
	d="
M87.884148,216.451355 
	C94.394150,216.148575 93.891945,222.487885 96.314705,226.008301 
	C100.211990,231.671280 105.575150,235.284637 110.898781,239.237228 
	C112.936516,240.750183 113.670815,244.018692 114.945160,246.819214 
	C109.577370,242.413849 104.263504,237.676483 98.549225,232.904938 
	C98.148796,232.870773 98.261909,232.712067 98.261909,232.712067 
	C94.813507,227.409546 91.365105,222.107025 87.884148,216.451355 
z"/>
<path fill="#F1F9FB" opacity="1.000000" stroke="none" 
	d="
M81.559845,139.694641 
	C81.130989,143.252563 80.282806,147.069199 79.748817,150.929276 
	C78.910789,156.987122 77.468910,163.112656 77.752502,169.140396 
	C78.224724,179.177719 79.860420,189.160294 80.992371,199.611267 
	C73.785667,179.991928 74.682281,159.968002 81.559845,139.694641 
z"/>
<path fill="#F1F9FB" opacity="1.000000" stroke="none" 
	d="
M132.454010,201.824631 
	C130.768570,201.334625 128.445847,201.023636 127.237709,199.697372 
	C124.182930,196.343903 121.327759,192.718765 118.959908,188.854828 
	C116.616898,185.031433 114.968300,180.782486 113.023056,176.330841 
	C119.462074,184.474777 125.893150,193.008072 132.454010,201.824631 
z"/>
<path fill="#032EAE" opacity="1.000000" stroke="none" 
	d="
M299.002441,165.137894 
	C298.745270,159.852112 298.488098,155.047531 298.230927,150.242966 
	C302.775574,163.674652 303.153778,180.014725 299.002441,184.675110 
	C299.002441,177.554199 299.002441,171.586655 299.002441,165.137894 
z"/>
<path fill="#F1F9FB" opacity="1.000000" stroke="none" 
	d="
M278.537720,97.704369 
	C277.924347,98.554886 276.865265,99.887627 275.790894,99.900085 
	C263.211090,100.045959 250.628754,100.022736 238.047836,99.935516 
	C237.081406,99.928818 236.120636,99.101257 235.082428,98.245239 
	C249.366714,97.747917 263.725830,97.660583 278.537720,97.704369 
z"/>
<path fill="#133689" opacity="1.000000" stroke="none" 
	d="
M259.868896,205.621094 
	C264.467926,191.444794 267.113068,176.924789 265.556305,161.411987 
	C266.402039,162.605408 268.002319,164.285248 267.859619,165.800980 
	C266.977661,175.169144 265.981323,184.546875 264.430634,193.822372 
	C263.754395,197.867371 261.674530,201.677689 259.868896,205.621094 
z"/>
<path fill="#143994" opacity="1.000000" stroke="none" 
	d="
M160.580902,184.934555 
	C164.206100,189.016937 167.630341,193.430664 171.232162,198.073303 
	C174.667480,193.450516 177.824509,189.202209 181.235748,184.744247 
	C178.496872,190.051254 175.503799,195.567917 172.510727,201.084564 
	C171.763855,201.107162 171.016983,201.129761 170.270111,201.152359 
	C166.973389,195.856873 163.676651,190.561371 160.580902,184.934555 
z"/>
<path fill="#F1F9FB" opacity="1.000000" stroke="none" 
	d="
M214.974716,87.596100 
	C210.678513,87.932190 206.273163,87.932190 201.399872,87.932190 
	C201.207870,85.127724 201.100662,83.561813 200.993240,81.578522 
	C205.617203,83.194099 210.241379,85.227051 214.974716,87.596100 
z"/>
<path fill="#032FAF" opacity="1.000000" stroke="none" 
	d="
M98.228920,232.815765 
	C98.309044,234.015564 98.309044,235.270401 98.309044,236.520599 
	C91.175827,237.516953 87.671021,232.770035 90.593102,225.173508 
	C91.603539,229.283554 92.039871,233.589905 97.866516,232.803619 
	C98.261909,232.712067 98.148796,232.870773 98.228920,232.815765 
z"/>
<path fill="#F1F9FB" opacity="1.000000" stroke="none" 
	d="
M94.256691,115.410416 
	C94.648384,118.058273 94.779823,120.941429 94.865761,122.826401 
	C91.745773,125.253738 89.191956,127.240593 86.367393,129.123840 
	C88.729919,124.562057 91.363174,120.103889 94.256691,115.410416 
z"/>
<path fill="#0130B0" opacity="1.000000" stroke="none" 
	d="
M129.684387,262.184875 
	C133.069717,262.392700 136.339798,262.838562 139.563797,263.506775 
	C140.012512,263.599792 140.621826,264.906677 140.459030,265.437744 
	C140.272552,266.046082 139.359619,266.721039 138.671890,266.838776 
	C134.660461,267.525360 131.785706,265.641998 129.684387,262.184875 
z"/>
<path fill="#E5F2FA" opacity="1.000000" stroke="none" 
	d="
M154.628754,231.713257 
	C151.179413,231.895157 148.404694,231.500137 148.626709,226.518387 
	C148.723785,224.340271 146.271530,222.048553 144.983154,219.413620 
	C148.168777,223.146454 151.348190,227.274094 154.628754,231.713257 
z"/>
<path fill="#F1F9FB" opacity="1.000000" stroke="none" 
	d="
M82.220474,204.347260 
	C87.834152,205.381546 88.471344,206.633820 87.926132,215.722260 
	C86.002579,212.328934 84.117226,208.515915 82.220474,204.347260 
z"/>
<path fill="#F1F9FB" opacity="1.000000" stroke="none" 
	d="
M276.839539,90.357574 
	C278.182922,91.047722 279.737244,91.964943 281.112579,93.099159 
	C282.966553,94.628082 284.682678,96.324074 287.508545,98.909584 
	C284.740143,98.645302 283.008972,98.480034 281.046722,97.990753 
	C279.534027,95.338257 278.252380,93.009773 276.839539,90.357574 
z"/>
<path fill="#F1F9FB" opacity="1.000000" stroke="none" 
	d="
M96.372604,131.029236 
	C96.611397,126.509529 94.898849,120.665138 102.367065,119.042542 
	C100.694519,122.918289 98.666023,126.848381 96.372604,131.029236 
z"/>
<path fill="#F1F9FB" opacity="1.000000" stroke="none" 
	d="
M230.001099,98.754181 
	C226.070435,98.915428 222.761185,98.124176 223.307281,92.617599 
	C225.132385,93.317268 226.844513,94.449921 228.782990,96.142059 
	C229.342575,97.142380 229.675812,97.583221 230.009064,98.024063 
	C230.009064,98.024063 230.002823,98.510796 230.001099,98.754181 
z"/>
<path fill="#133689" opacity="1.000000" stroke="none" 
	d="
M265.478973,158.646576 
	C264.378540,154.688431 263.518707,150.409332 262.606323,145.729813 
	C268.026611,148.585373 265.608398,153.763565 265.478973,158.646576 
z"/>
<path fill="#0731B5" opacity="1.000000" stroke="none" 
	d="
M88.001175,270.998779 
	C86.523895,269.977539 85.046608,268.956329 82.574974,267.247742 
	C84.440437,266.351532 85.636703,265.776825 86.832977,265.202087 
	C87.246727,266.898376 87.660477,268.594604 88.037109,270.645447 
	C88.000000,271.000000 88.001175,270.998779 88.001175,270.998779 
z"/>
<path fill="#143994" opacity="1.000000" stroke="none" 
	d="
M149.965363,170.520218 
	C151.735992,172.356354 153.511337,174.603638 155.420013,177.150452 
	C150.760559,177.788132 149.530731,175.074570 149.965363,170.520218 
z"/>
<path fill="#143994" opacity="1.000000" stroke="none" 
	d="
M155.435577,177.940399 
	C157.151581,179.579422 158.692429,181.591675 160.373016,183.877609 
	C155.859772,184.816589 155.779327,181.367844 155.435577,177.940399 
z"/>
<path fill="#F1F9FB" opacity="1.000000" stroke="none" 
	d="
M137.334778,208.511475 
	C134.169525,208.363434 131.058884,207.733383 132.624084,202.858948 
	C134.307159,204.444229 135.759079,206.316238 137.334778,208.511475 
z"/>
<path fill="#E5F2FA" opacity="1.000000" stroke="none" 
	d="
M141.943558,214.645874 
	C140.695297,213.489487 139.375381,211.987564 138.092484,210.103683 
	C139.376968,211.247940 140.624435,212.774139 141.943558,214.645874 
z"/>
<path fill="#F1F9FB" opacity="1.000000" stroke="none" 
	d="
M219.856125,89.890030 
	C218.355576,89.644798 216.742020,89.188263 215.096375,88.321625 
	C216.623917,88.500587 218.183502,89.089661 219.856125,89.890030 
z"/>
<path fill="#143994" opacity="1.000000" stroke="none" 
	d="
M143.877121,162.391846 
	C144.749603,163.002121 145.502365,163.879974 146.384796,165.014313 
	C145.595444,164.400345 144.676422,163.529892 143.877121,162.391846 
z"/>
<path fill="#E5F2FA" opacity="1.000000" stroke="none" 
	d="
M158.710999,237.149261 
	C157.894577,236.555023 156.957306,235.657227 156.049408,234.332367 
	C156.915909,234.885422 157.753036,235.865540 158.710999,237.149261 
z"/>
<path fill="#F1F9FB" opacity="1.000000" stroke="none" 
	d="
M124.041733,253.333496 
	C125.177818,253.524246 126.502174,253.989563 127.833481,254.840607 
	C126.636963,254.686905 125.433487,254.147491 124.041733,253.333496 
z"/>
<path fill="#133689" opacity="1.000000" stroke="none" 
	d="
M258.569763,208.917511 
	C258.515045,208.026901 258.811066,207.059738 259.323364,205.876648 
	C259.333252,206.720795 259.126862,207.780884 258.569763,208.917511 
z"/>
<path fill="#143994" opacity="1.000000" stroke="none" 
	d="
M146.543915,165.914062 
	C147.183426,166.154526 147.649765,166.725555 148.158478,167.573730 
	C147.590820,167.315445 146.980789,166.780029 146.543915,165.914062 
z"/>
<path fill="#D7EBF8" opacity="1.000000" stroke="none" 
	d="
M222.910828,91.716110 
	C222.189423,91.654816 221.316360,91.323158 220.526581,90.623962 
	C221.326309,90.652863 222.042740,91.049301 222.910828,91.716110 
z"/>
<path fill="#D7EBF8" opacity="1.000000" stroke="none" 
	d="
M230.400055,97.966324 
	C229.675812,97.583221 229.342575,97.142380 228.984344,96.415314 
	C229.678024,96.498108 230.396698,96.867119 231.330719,97.455376 
	C231.294403,97.752609 231.042725,97.830597 230.400055,97.966324 
z"/>
<path fill="#143994" opacity="1.000000" stroke="none" 
	d="
M181.820007,184.512573 
	C181.789597,184.014023 182.094742,183.539856 182.655457,182.941772 
	C182.659225,183.390884 182.407410,183.963913 181.820007,184.512573 
z"/>
<path fill="#F1F9FB" opacity="1.000000" stroke="none" 
	d="
M127.887634,255.399216 
	C128.130341,255.120010 128.438034,255.219971 128.841843,255.665176 
	C128.655380,255.792007 128.326935,255.714645 127.887634,255.399216 
z"/>
<path fill="#F1F9FB" opacity="1.000000" stroke="none" 
	d="
M117.810982,249.370407 
	C118.014084,249.256851 118.355583,249.395599 118.845657,249.775040 
	C118.645950,249.884735 118.297661,249.753723 117.810982,249.370407 
z"/>
<path fill="#F1F9FB" opacity="1.000000" stroke="none" 
	d="
M119.073288,250.215546 
	C119.276314,250.041763 119.527611,250.164062 119.851517,250.553925 
	C119.632454,250.804001 119.364929,250.700714 119.073288,250.215546 
z"/>
<path fill="#F1F9FB" opacity="1.000000" stroke="none" 
	d="
M120.874725,251.344086 
	C121.071953,251.231598 121.393814,251.368698 121.861916,251.730011 
	C121.671890,251.834030 121.335625,251.713852 120.874725,251.344086 
z"/>
<path fill="#F1F9FB" opacity="1.000000" stroke="none" 
	d="
M122.142120,252.171417 
	C122.328392,252.015518 122.555283,252.126984 122.848495,252.477188 
	C122.649086,252.703873 122.405052,252.611511 122.142120,252.171417 
z"/>
<path fill="#0731B5" opacity="1.000000" stroke="none" 
	d="
M87.999237,271.000610 
	C88.122490,271.142334 88.246498,271.283417 88.370514,271.424530 
	C88.284149,271.375336 88.197784,271.326141 88.056305,271.137878 
	C88.001175,270.998779 88.000000,271.000000 87.999237,271.000610 
z"/>
<path fill="#F1F9FB" opacity="1.000000" stroke="none" 
	d="
M116.110123,248.202621 
	C116.321724,248.041245 116.559891,248.172668 116.861511,248.561264 
	C116.637192,248.799713 116.374435,248.692032 116.110123,248.202621 
z"/>
<path fill="#F1F9FB" opacity="1.000000" stroke="none" 
	d="
M114.934402,247.341125 
	C115.142517,247.233368 115.446854,247.375900 115.878464,247.742294 
	C115.680710,247.841232 115.355667,247.716309 114.934402,247.341125 
z"/>
<path fill="#E5F2FA" opacity="1.000000" stroke="none" 
	d="
M159.809952,238.730042 
	C159.501907,238.869614 159.259857,238.651245 159.052521,238.087067 
	C159.258820,238.052811 159.521713,238.263092 159.809952,238.730042 
z"/>
<path fill="#E5F2FA" opacity="1.000000" stroke="none" 
	d="
M156.054901,233.662048 
	C155.815140,233.718201 155.526962,233.492737 155.179596,232.992401 
	C155.415771,232.938492 155.711121,233.159454 156.054901,233.662048 
z"/>
<path fill="#E5F2FA" opacity="1.000000" stroke="none" 
	d="
M144.939072,218.743378 
	C144.716446,218.796036 144.451462,218.584488 144.120422,218.121872 
	C144.335175,218.073593 144.615936,218.276367 144.939072,218.743378 
z"/>
<path fill="#E5F2FA" opacity="1.000000" stroke="none" 
	d="
M142.844696,215.781052 
	C142.551743,215.927139 142.310837,215.728836 142.076965,215.210419 
	C142.279297,215.164291 142.550201,215.346390 142.844696,215.781052 
z"/>
<path fill="#143994" opacity="1.000000" stroke="none" 
	d="
M148.192871,168.053619 
	C148.417297,168.007370 148.690338,168.227524 149.012787,168.714569 
	C148.788620,168.761002 148.515045,168.540512 148.192871,168.053619 
z"/>
<path fill="#FFFEFE" opacity="1.000000" stroke="none" 
	d="
M129.089859,103.401978 
	C159.107208,103.003738 189.215210,102.980827 219.322983,103.051575 
	C221.155472,103.055878 222.986237,103.803238 224.908966,104.601120 
	C194.892303,104.998566 164.784424,105.020752 134.676758,104.949448 
	C132.843750,104.945099 131.012512,104.199203 129.089859,103.401978 
z"/>
<path fill="#FFFEFE" opacity="1.000000" stroke="none" 
	d="
M114.694641,99.145859 
	C119.824028,99.247246 125.016396,97.950134 128.936615,102.640358 
	C127.616112,103.382744 126.188820,103.641525 124.868187,104.167877 
	C120.170868,106.040024 115.480461,107.628357 109.894814,105.027710 
	C111.448029,103.047348 112.920059,101.170494 114.694641,99.145859 
z"/>
<path fill="#FFFEFE" opacity="1.000000" stroke="none" 
	d="
M103.400452,111.994896 
	C103.001694,111.550392 103.000938,111.106964 102.999130,110.330849 
	C104.599152,107.211403 105.949852,103.757332 110.935989,108.271645 
	C108.290359,109.652115 106.044403,110.824036 103.400452,111.994896 
z"/>
<path fill="#FFFEFE" opacity="1.000000" stroke="none" 
	d="
M124.663689,92.995842 
	C125.252808,94.461525 125.509216,95.928238 125.765617,97.394943 
	C125.363792,97.519409 124.961960,97.643867 124.560135,97.768326 
	C124.043381,96.422371 123.526627,95.076408 123.004936,93.365067 
	C123.443657,92.998749 123.887321,92.997810 124.663689,92.995842 
z"/>
<path fill="#F7FCED" opacity="1.000000" stroke="none" 
	d="
M214.318588,249.091034 
	C215.608597,249.146408 216.541977,249.255066 217.569046,249.374634 
	C215.693268,253.170883 215.693268,253.170883 211.093567,250.981186 
	C212.189331,250.279480 213.075638,249.711899 214.318588,249.091034 
z"/>
<path fill="#F1F9FB" opacity="1.000000" stroke="none" 
	d="
M120.243156,243.010956 
	C120.409882,242.900665 120.578148,242.954773 120.746422,243.008881 
	C120.579178,243.064362 120.411942,243.119873 120.243156,243.010956 
z"/>
<path fill="#F7FCED" opacity="1.000000" stroke="none" 
	d="
M209.467773,251.449646 
	C209.523285,251.416550 209.412247,251.482758 209.467773,251.449646 
z"/>
<path fill="#F1F9FB" opacity="1.000000" stroke="none" 
	d="
M87.467911,136.449524 
	C87.523148,136.416519 87.412682,136.482513 87.467911,136.449524 
z"/>
<path fill="#F1F9FB" opacity="1.000000" stroke="none" 
	d="
M94.466873,219.449341 
	C94.522850,219.415833 94.410904,219.482864 94.466873,219.449341 
z"/>
<path fill="#F1F9FB" opacity="1.000000" stroke="none" 
	d="
M101.465813,117.447525 
	C101.523735,117.412430 101.407890,117.482620 101.465813,117.447525 
z"/>
</svg>