<svg xmlns="http://www.w3.org/2000/svg" height="77.96" viewBox="0 0 102.38625 77.959999" width="102.39"><g transform="matrix(1.25 0 0 -1.25 -109.31 664.89)"><g transform="translate(.34455 .34455)"><path d="m144.2 523.42-3.98-7.066h-5.626l4.805 14.759h-30.148c-5.318 0-10.037-3.385-11.743-8.421-0.008-0.024-9.621-29.987-9.621-29.987-0.294-0.993-0.443-2.014-0.443-3.036 0-5.864 4.771-10.635 10.636-10.635h18.605l-0.306-9.489h18.768l33.406 53.875" fill="#fff"/><path d="m89.379 492.26c-0.248-0.838-0.378-1.709-0.378-2.594 0-5.006 4.073-9.078 9.079-9.078h20.211l-0.305-9.489h16.296l31.477 50.762h-20.649l-7.183-12.751 0.519 5.686h-5.993l4.804 14.758h-28.006c-4.652 0-8.777-2.96-10.269-7.364"/><path d="m92.8 491.34 0.014-0.005c0 0.005 0.001 0.009 0.002 0.014l-0.016-0.009zm54.382 26.984-14.283-25.359 1.665 18.292h-21.793l-2.496-8.058h3.423l-3.145-9.909h-6.044l7.759 24.086h6.085l-1.143-3.495h11.214l3.95 12.136h-23.123c-3.13 0-5.907-1.992-6.911-4.956-0.004-0.015-4.774-14.873-4.774-14.873l-3.28-10.216-1.493-4.653c-0.164-0.53-0.247-1.084-0.247-1.646 0-3.05 2.483-5.532 5.534-5.532h20.835l3.376 10.548-0.643-20.037h10.66l27.082 43.672" fill="#fff"/><path d="m112.15 504.58h2.944 0.494l-0.15-0.471-3.794-11.95-0.079-0.252h-0.264-8.194-0.495l0.152 0.471 8.417 26.13 0.08 0.25h0.263 8.237 0.497l-0.154-0.473-0.988-3.023h8.304l3.051 9.372h-21.22c-2.537 0-4.788-1.615-5.6-4.011l-9.538-29.715c-0.122-0.397-0.185-0.813-0.185-1.236 0-2.289 1.863-4.15 4.152-4.15h19.825l4.939 15.425 0.08 0.25h0.263 0.324 0.372l-0.012-0.371-0.796-24.793h8.464l25.367 40.908h-8.915l-15.92-28.264-0.104-0.183h-0.21-0.258-0.395l0.037 0.392 1.909 20.988h-19.259" fill="#0033a0"/></g></g></svg>
