<?xml version="1.0" encoding="utf-8"?>
<!-- Generator: Adobe Illustrator 27.2.0, SVG Export Plug-In . SVG Version: 6.00 Build 0)  -->
<svg version="1.1" id="Layer_1" xmlns="http://www.w3.org/2000/svg" xmlns:xlink="http://www.w3.org/1999/xlink" x="0px" y="0px"
	 viewBox="0 0 469.3 299.3" style="enable-background:new 0 0 469.3 299.3;" xml:space="preserve">
<style type="text/css">
	.st0{fill:#0033A0;}
	.st1{fill-rule:evenodd;clip-rule:evenodd;fill:#0033A0;}
</style>
<g>
	<g>
		<path class="st0" d="M56.5,155.9c-0.4,2.5-0.6,5-1.7,7.1c-0.4,0.3-1,0.4-1.4,0.2c-1.6-0.7-0.3-2.8-2.2-3.4
			c-4.9-3.2-11-3.8-17.1-3.3c-8.5,1-17.5,4.9-21.1,13.5c-2.4,6-2.2,12.7-0.2,18.6c2.9,8.6,11.7,14.4,20.7,14.7
			c4.2,0.2,8.2-0.4,11.8-1.8l0.1-0.2c-0.1-5.4,0.1-9.7-0.5-14.4c-0.2-0.9-0.5-1.9-1.5-2.2c-2.2-0.3-4.5-0.2-6.9-0.2
			c-0.2-0.8-0.1-1.8-0.1-2.7l25.4,0l0.1,0.1c0.1,1.1,0,1.6,0,2.6l-0.2,0.1c-1.8,0.1-3.7-0.2-5.3,0.3l-0.2,0.3l0.1,12.1
			c0.1,1.1,0.4,2.2,1.2,3.1c0.1,0.4,0.2,0.9,0,1.3c-1.7,1.4-3.9,1.6-5.9,2.2c-6.6,1.4-13.2,2.9-20.5,2.9
			c-11.8-0.1-24.2-4.2-29.3-15.6c-3.2-7.9-2.6-17.9,2.9-24.7c9.3-10.9,22.4-13.7,36.4-13.4C46.6,153.4,51.8,154.1,56.5,155.9
			L56.5,155.9z"/>
		<path class="st0" d="M261.1,154.7v2.5c0,0-3-0.2-5.1,0.2c-1,0.2,6.5,14,6.5,14c3.5,6.9,6.8,13.8,10.6,20.5l0.2,0
			c0,0,15.3-31.9,15.2-34c-1.2-1.3-7.3-0.5-7.3-0.5c0-0.7,0.1-1.7,0-2.6l0.2-0.1c5.9-0.1,12.1,0,18.1,0c0.1,0.9,0.1,1.8,0.1,2.7
			c-0.9,0.1-3.1,0-4.6,0.1c-0.8,0.5-1.1,1.5-1.6,2.3l-14,29l-8.7,17.6c-0.2,0.4-0.5,0.8-1,0.8c-0.9,0.1-1.4-0.8-1.8-1.5l-9.8-19.1
			l-6.7-13.2c-2.6-5-4.9-10.1-8.1-14.8c-1.4-1.7-3.8-1.2-5.8-1.4c0.1-1,0-1.6,0-2.7l23.5,0L261.1,154.7L261.1,154.7z"/>
		<path class="st0" d="M127.7,189.3c-1.8-4.5-3.7-8.9-5.6-13.3c-2.4,4.2-4.4,8.6-6.5,13v0.3C119.5,189.4,123.7,189.4,127.7,189.3
			L127.7,189.3z M129.5,166.9c0.9,1.2-1.3,1.5-1.2,2.7c1.7,5.1,4,10,6.1,15l6.2,13.7c1.1,2,2,5.4,5.1,4.9c1.8,0,3.5,0.1,5.2-0.1
			c0.2-0.1,0.4-0.3,0.4-0.5l0-17.8c-0.2-3.4,0.2-8.2-0.5-11.6c-0.5-1.3-1.3-2.8-2.8-3.2c-1-0.2-2.1-0.2-3.1-0.2v-1.9
			c4.2-0.2,8,0.1,12.3,0l16.2,15.2l12.1,11.2l0.2-0.2l-0.1-16.9c-0.2-2-0.2-4.5-0.9-6.5c-0.4-1.1-3.1-0.8-5.3-0.8v-2l13.5,0
			c0.1,0.6,0,2,0,2c-1.3-0.1-2.8-0.3-4,0.2c-0.6,0.3-0.1,35.2-0.1,35.2c-0.1,0.3-0.2,0.5-0.6,0.6c-0.5,0.1-0.8-0.2-1.2-0.4l-4-3.8
			l-17.3-16.2c-3.5-3.1-7.3-7.1-11.1-10.3v21.2l0.5,5.1c0.2,0.6,0.4,1.1,0.9,1.5c1.3,0.4,3.1,0.1,4.5,0.3c0.2,0.6,0.2,1.3,0,2h-31
			l-0.2-0.1c-0.1-0.5-0.1-1.3,0-1.8c1.3-0.2,2.9,0.1,4.2-0.3c0.2-0.2,0.2-0.5,0.1-0.7c-1.3-3.5-2.9-6.9-4.4-10.4l-0.2-0.2l-14.8,0
			c-1.5,3.4-3.3,6.6-3.9,10.4c0,0.3,0.3,0.6,0.6,0.8c1.8,0.4,3.5,0.2,5.3,0.2c0.2,0.6,0.1,1.3,0,2c-4.7,0.2-9.4,0-14.4,0
			c-0.3-0.7,0-1.2,0-1.9c1.5-0.4,3.9,0.5,4.3-1.7l8.6-17.3l8.4-16.6c1.6-0.7,3.6-0.7,5.4-1.1C128.8,166.7,129.2,166.7,129.5,166.9
			L129.5,166.9z"/>
		<path class="st0" d="M300.5,189.5c-1.7-4.4-3.6-8.9-5.5-13.3c-2.4,4.4-4.6,8.8-6.6,13.3C292.7,189.6,296.3,189.7,300.5,189.5
			L300.5,189.5z M302.4,167.1c0.2,0.2,0.3,0.7,0,1c-0.4,0.4-1.2,0.9-1.2,1.6c0.6,3.2,2.2,6,3.3,9l2.6,6.1l6.5,14.5
			c0.9,1.7,1.8,4.6,4.4,4.3c1.8,0,4,0.2,5.8-0.2c0.4-0.3,0.3-1,0.3-1.4l0-25.7c0-1.8-0.2-3.5-0.5-5.1c-0.4-1.4-4.4-0.9-5.3-1v-1.9
			l18.3-0.1c0,1.1,0,2,0,2s-2.8-0.2-3.8,0.3l-0.2,0.6l0.2,26.8c0.4,1.8-0.2,3.9,1.3,5.2l0.9,0.2c5.5,0,11.1,0.2,16-1.5
			c1.1-0.4,2.2-1.1,2.9-2.2c0.4-0.2,0.9-0.3,1.3-0.1c0.6,0.6,0,1.3,0,1.9c-0.5,1.5-1,2.9-1.6,4.3l-51.2-0.1l-0.2-1.9
			c1.6-0.2,3.1,0,4.3-0.4l0.1-0.4c-1.3-3.6-2.9-7.1-4.4-10.6l-0.3-0.2h-14.5c-1.5,2.8-2.8,5.8-3.8,8.8c0,0.8-0.6,1.8,0.3,2.3
			c1.6,0.5,3.6,0.3,5.4,0.3c0,0.9,0,1.3,0,1.9l-14.4,0.1v-1.9c1.5-0.3,3.6,0.4,4.2-1.6l7.8-15.5l9.4-18.5c1.7-0.5,3.5-0.7,5.3-1.1
			C301.8,166.9,302.1,166.9,302.4,167.1L302.4,167.1z"/>
		<path class="st0" d="M84.5,174.9c-2.4-4-12.1-4.5-12.2-4.1l0.2,15.4c4.6,0.2,9.4,0,12.2-3.8C85.9,180.1,85.6,177.1,84.5,174.9
			L84.5,174.9z M79.4,167.8c5.4,0.3,10.9,1.8,13.7,6.9c1.3,2.8,0.9,6.4-1,8.7c-2.2,2.7-5.1,3.1-8.1,3.9c4.2,5.2,8,10.5,13.2,15
			c1,0.8,2.4,0.8,3.7,1c0,0.6,0,1.4-0.1,2l-10.1-0.1l-1.6-0.4c-3.9-3.8-6.9-8.3-9.9-12.6l-2.7-3.9h-4c0,0-0.2,7.5,0.1,11.9
			c0.2,1,0.2,2.4,1.3,2.9c1.3,0.2,3,0.1,4.4,0.1c0.2,0.5,0,2,0,2H59.9c-0.2-0.5-0.2-1.4-0.1-2c1.3-0.1,3,0.2,4-0.3l0.2-0.7
			c0.1-1.7-0.2-24.6-0.2-24.6c-0.2-2.2,0-4.8-0.6-6.9c-0.8-1.5-2.7-0.9-4.2-1.1H58c0-0.6,0.1-1.3,0-2L79.4,167.8L79.4,167.8z"/>
		<path class="st0" d="M226,176.9c-4.1-5-10-6.6-16.4-6.5c-0.7,0.2-1.9-0.3-2.1,0.7l0.1,25.4c0.1,2,0.2,3.8,0.7,5.7
			c0.3,0.4,0.7,0.7,1.3,0.8c5.2,0.1,10-0.8,14.2-3.3c3.9-2.4,5.9-6.5,6.1-10.8C229.9,184.3,228.6,180.2,226,176.9L226,176.9z
			 M221.2,168.4c6.5,0.9,13.1,4.3,16.2,10.7c1.7,4.1,2,9.1,0.3,13.3c-1.8,5.2-7.2,10-12.4,11.4c-4.4,1.5-9.3,1.7-14.4,1.6l-15.8-0.1
			c0-0.6,0-1.8,0-1.8c1.4-0.1,3.5,0.6,4.1-1.1l-0.1-24.4c-0.2-2.4,0.2-4.8-0.6-7.1c-0.4-1.2-1.8-0.9-2.8-1.1h-2.6c0-0.9,0-0.9,0-2
			l21.9,0L221.2,168.4L221.2,168.4z"/>
		<path class="st0" d="M372.3,168.2c0,0.8,0,1.3,0,2c-1.4,0-2.7-0.2-3.8,0.3l-0.2,0.4l0,23.5c0,2.6,0.2,5.1,0.5,7.5
			c0.2,0.5,0.5,1,0.9,1.3l0.7,0.2c4.8,0,9.8,0.1,14.4-0.9c1.7-0.6,3.5-1.1,4.7-2.8c0.4-0.3,0.9-0.4,1.3-0.1c0.5,0.9-0.2,1.8-0.3,2.7
			l-1.2,3.4l-0.2,0.2l-33.1-0.1c0-0.6,0-1.3,0-2c1.3-0.2,2.8,0.2,3.9-0.3c0.5-0.6,0.1-1.4,0.3-2l-0.1-23.2c-0.3-2.5,0.2-5.3-0.8-7.5
			c-0.8-0.7-2-0.5-3.1-0.6c-0.7-0.2-1.8,0.1-1.8-0.1c0-0.5,0.1-1.3,0.1-1.9L372.3,168.2L372.3,168.2z"/>
		<path class="st0" d="M421.3,168.3l3.3,0c-0.1,1.8-0.5,3.5-0.8,5.3c-0.2,0.2-0.3,0.7-0.7,0.7c-0.5,0-1,0-1.1-0.5
			c-0.2-0.5-0.2-1.1-0.7-1.4c-4.2-2-9.3-1.8-14.3-1.9c-1,0.1-2.3-0.3-2.9,0.5l0.1,13.1l0.3,0.1c4.3-0.1,8.9,0.3,12.9-0.5
			c1.2-0.4,0.7-1.8,0.9-2.7c0.1-0.4-0.2-0.8,0.2-1.2c0.7,0,1.3-0.1,2.1-0.1v10.4c-0.8,0.1-2.2,0-2.2,0c-0.1-0.7,0.1-1.9-0.3-2.7
			c-1-0.7-2.4-0.6-3.6-0.8c-3.4,0-6.7-0.2-10.2-0.1l-0.2,0.2c0.1,5.1-0.2,10.4,0.5,15.1c0.2,0.6,0.4,1.1,0.9,1.3
			c2.4,0.3,5.1,0.1,7.5,0.2c3.8-0.3,7.7-0.4,10.8-2.2c0.9-0.6,1.3-2.2,2.6-1.6c0.6,0.7,0,1.6,0,2.3l-1.5,4l-0.7,0.1l-32.7-0.1l0-1.9
			c1.3-0.3,2.8,0.1,3.9-0.4l0.2-0.5l0-25.2c-0.2-1.8,0-4.5-0.6-6.5c-0.2-0.3-0.5-0.7-0.9-0.8c-1.3-0.3-2.9,0-4.4-0.2
			c-0.2-0.6-0.1-1.3-0.1-1.9l0.3-0.2l5.1,0L421.3,168.3L421.3,168.3z"/>
		<path class="st0" d="M443.1,168.3l0,2c-1.5,0-2.8-0.1-4,0.2c0.2,1.4,0.9,2,1.5,3l8,12.2l0.8,1l0.2-0.2c3.1-4.8,6.3-9.5,8.6-14.6
			c0.1-0.3,0.2-0.8,0.1-1.1l-0.4-0.3l-4.6-0.2c0-0.8,0-2,0-2l13.1,0.1c0,0.8,0.1,1.3,0,1.9c-1.5,0-3.4-0.3-4.2,1.4l-10.5,16.3
			l-1,1.5l0,10.5c0.4,1.1-0.1,3.1,1.4,3.6c1.3,0.3,3,0.1,4.4,0.2c0,0.7,0,1.4,0,2l-18.4-0.1c0-0.4,0-1.9,0-1.9
			c1.5-0.2,4.1,0.8,4.2-1.3l-0.1-12.7c-4-5.7-7.6-11.7-11.7-17.4c-0.7-0.8-1.3-1.7-2.2-2.1l-3.3-0.1c0-0.7,0-2,0-2L443.1,168.3
			L443.1,168.3z"/>
		<path class="st0" d="M30,215.1c0.1,1.9,0.6,3.9,0.2,5.8c-0.4,0.2-1.1,0.4-1.6,0.2c-0.7-0.9-0.9-2.3-2.2-2.9
			c-2.2-1.1-4.7-1.7-7.3-1.6c-3.9,0.2-8.1,1.2-9.7,5.2c-0.4,1.6-0.1,3.6,1.2,4.9c2.1,2.3,5,2.8,7.6,3.9c5.9,2.2,14.4,3.2,15.9,11
			c0.9,4.4-1.3,8.2-4.8,11c-7.3,5.4-18.6,4.4-27,2.1c-0.6-2-1-4-1.3-6.1c0.1-0.4,0.1-0.9,0.6-0.9c0.6,0,1.5-0.2,1.7,0.6
			c1.6,3.8,5.8,4.7,9.3,5.3c3.3,0.6,6.6,0,9.5-1c2.6-1.1,5.2-3.6,5.1-6.7c0-2.7-2.2-5.1-4.6-6c-6-3-13.3-3-18.3-8.2
			c-2.1-2.5-2.6-6.2-1.6-9.3c1.6-4.5,6.6-6.4,10.6-7.8C18.5,213.4,24.9,213.6,30,215.1L30,215.1z"/>
		<path class="st0" d="M174.4,216.6c0.2,0.6,0.2,1.5,0,2.1c-1.4,0.2-2.9-0.2-4.2,0.3l-0.2,0.4v22.8c0.2,4.1,1,8.3,4.7,10.8
			c3.4,2.2,8.1,2.4,12.2,1.7c3.5-0.8,7.4-2.5,9-6.2c0.8-1.5,1.2-3.3,1.4-5.1l-0.1-17.3c-0.3-2-0.1-4.4-0.9-6.4
			c-0.4-0.7-1.1-0.8-1.7-0.9l-3.8-0.1c-0.1-0.7-0.1-1.5,0-2.2l14.2,0c0.2,0.6,0.1,1.3,0.1,2l-0.2,0.2c-1.4,0.2-2.9-0.2-4.1,0.3
			l-0.2,0.3l0,24.6c-0.4,4.3-2.7,8.2-6.6,10.6l-2.8,1.6c-4.9,1.9-10.6,2.3-16.1,1.5c-5.3-0.8-11.3-3.1-13.3-8.8
			c-0.7-1.8-0.7-3.8-0.8-5.9l0-17.8c-0.1-1.9,0-4-0.9-5.9l-0.7-0.5c-1.5-0.2-3.1-0.1-4.7-0.1l-0.2-0.2v-2l0.2-0.1L174.4,216.6
			L174.4,216.6z"/>
		<path class="st0" d="M71.7,233.2c-2,3.2-3.6,6.7-5.3,10.1v0.2c3.1,0,6.5,0.1,9.6,0C74.6,240,73.3,236.5,71.7,233.2L71.7,233.2z
			 M77.7,226.1c0.3,0.9-1.5,1.1-1,2.2l1.2,3.5l8.3,18.9c0.7,1.4,1.3,3.2,2.9,3.9l2.4,0.2c0,0.4,0,1,0,1.6c-4.8,0.1-9.8,0.1-14.2,0
			c0.1-0.5,0-1.1,0-1.6c1.1,0,2.2,0.1,3.2-0.3l-0.1-0.9l-3.3-7.8l-0.2-0.2H65.4l-0.3,0.4c-1.1,2.6-2.5,5-2.9,7.9
			c0.2,0.9,1.2,0.7,1.9,0.8l2.8,0.1c0,0.5,0,1,0,1.6c-3.9,0.1-7.7,0.1-11.5,0c0-0.6-0.1-1.1,0-1.6c1.1-0.2,2.7,0.4,3.3-0.9l6-12
			l6.9-13.4l1-2c1.4-0.4,2.9-0.5,4.4-0.8C77.2,225.7,77.6,225.7,77.7,226.1L77.7,226.1z"/>
		<path class="st0" d="M382.2,227.2c0.3,1.2,0.3,2.6,0.4,3.9c-0.1,0.3-0.2,0.7-0.7,0.7c-1.5,0.1-1-1.8-2.3-2.2
			c-2.9-1.8-7.3-1.6-10.3,0c-1.3,0.9-2.3,2.2-2.2,3.8c0.4,3.7,4.6,4.2,7.3,5.3c4.2,1.4,9.9,2.9,10.8,8c0.7,3.6-1.4,6.7-4.3,8.7
			c-5.3,3.3-13.1,2.6-19,1c-0.6-1.5-0.7-3.1-1.1-4.7c0-0.4,0.2-0.6,0.6-0.7c1.2-0.4,1.2,1.1,1.8,1.7c2.9,2.8,7.4,3.3,11.5,2.6
			c2.2-0.5,4.8-2,5.3-4.4c0.2-1.2,0-2.6-0.7-3.5c-1.6-1.8-3.8-2.3-5.8-3.1c-4.3-1.6-10.5-2.4-11.6-7.8c-0.5-2.5,0.4-5.1,2.4-6.9
			C369.3,225.8,376.4,225.5,382.2,227.2L382.2,227.2z"/>
		<path class="st0" d="M50.3,226.5c2.9,0.1,5.8-0.1,8.5,0.2l1.8,4.6c-0.1,0.2-0.3,0.6-0.6,0.6c-1.3,0.2-1.5-1.6-2.6-1.9
			c-2.9-1.2-6.4-1.5-9.8-1.3l-0.1,0.1l0,23.3c0.3,0.9,0.1,2.3,1.2,2.7c1.5,0.2,3.1,0.1,4.6,0.1c0.1,0.5,0,1.1,0.1,1.6l-17.7,0
			c0-0.5,0-1.1,0-1.6c1.7-0.1,3.3,0.1,4.8-0.2l0.2-0.4v-25.2l-0.1-0.3c-3.1-0.1-6.7,0-9.6,1.1c-1.3,0.3-1.5,2.6-3.2,2
			c-0.3-0.3-0.2-0.8,0-1.1l1.5-3.9c0.7-0.2,1.6,0,2.3-0.2L50.3,226.5L50.3,226.5z"/>
		<path class="st0" d="M116,226.7c0.7,1.5,1.3,3.1,1.8,4.7c-0.1,0.3-0.4,0.5-0.7,0.5c-1.1,0.1-1.1-1.2-2-1.6c-1.4-0.9-3-1.1-4.7-1.4
			c-1.8-0.3-3.6-0.2-5.4-0.3l-0.2,0.1l0,23.6c0.4,0.7,0,1.8,0.9,2.3c1.6,0.2,3.3,0.2,4.9,0.2c0,0.7,0,1,0,1.6l-17.6,0l0-1.5
			c1.6-0.1,3.3,0.1,4.9-0.3l0.2-0.7l0-25c0-0.3-0.4-0.3-0.6-0.3c-3.4,0.1-6.9,0.2-9.7,1.6c-0.9,0.6-1.2,2.2-2.5,1.5
			c-0.4-0.3-0.1-0.9,0-1.2l1.4-3.7c0.5-0.4,1.4-0.1,2-0.2l25.5,0L116,226.7L116,226.7z"/>
		<path class="st0" d="M146.8,226.7c-0.1,1.5-0.3,2.9-0.6,4.3c-0.2,0.2-0.2,0.6-0.7,0.6c-0.3,0-0.8-0.1-0.9-0.5
			c-0.1-1.4-1.7-1.3-2.6-1.8c-3.8-0.6-7.3-0.9-11.3-0.6l-0.3,0.6l0,9.9l0.2,0.2c3.5-0.1,7.3,0.3,10.5-0.6c0.7-0.7,0.4-1.8,0.5-2.7
			c0-0.2,0.2-0.2,0.3-0.2l1.5,0.1c0.2,3,0,5.3,0,8.1c-0.5,0.2-1.2,0.1-1.8,0c-0.3-0.8,0.4-2.4-1-2.6c-3.3-0.4-6.8-0.4-10.2-0.3
			l-0.1,0.2c0,3.6-0.2,8.3,0.3,12.1c0.1,0.4,0.3,0.8,0.7,1c5,0.2,10.3,0.4,14.5-1.5c0.7-0.5,1.2-1.8,2.2-1.3c0.5,0.6,0,1.2-0.1,1.8
			l-1.1,3.1l-0.2,0.1l-26.5,0c0-0.6,0-1.1,0-1.6c1.2-0.2,2.7,0.4,3.3-0.6l0-4v-15.7c-0.1-2,0.2-4.1-0.6-5.8l-0.4-0.4
			c-1.1-0.2-2.4-0.1-3.5-0.2c0-0.5-0.1-1.2,0.1-1.6l24.4,0L146.8,226.7L146.8,226.7z"/>
		<path class="st0" d="M212.4,226.9l11.6,10.9l10.6,9.9l0.2-0.2c0.2-4.8-0.1-10.1-0.2-14.2c-0.3-1.5,0.1-3.2-0.9-4.4
			c-1.1-0.5-2.6-0.3-3.7-0.4c-0.2-0.4-0.3-1.2,0-1.6c3.5-0.2,6.7,0.1,10.3,0c0.3,0.4,0.2,1.1,0.1,1.6c-0.9,0.2-2,0.1-2.9,0.2
			l-0.3,0.3l0,27.9c-0.2,0.3-0.5,0.3-0.8,0.2l-0.7-0.4l-15.6-14.7l-9.8-9.1h-0.1c-0.1,8.4-0.3,12.9,0.4,20.7
			c0.2,0.4,0.4,0.9,0.9,1.2c1,0.2,2.2,0.1,3.4,0.1c0,0.6,0,1.1,0.1,1.6c-3.7,0-7,0-10.6,0c0-0.6,0-1.1,0-1.6c1.3,0,2.1,0.1,3-0.2
			l0.2-0.5l-0.1-21.5c0-1.5-0.6-2.9-1.8-3.8c-0.9-0.4-2-0.5-3.1-0.5c-0.2-0.3-0.2-1.1-0.1-1.5l0.4-0.2
			C206.3,226.7,209.1,226.7,212.4,226.9L212.4,226.9z"/>
		<path class="st0" d="M255.7,226.9c0.2,0.4,0.2,1.1,0.1,1.5c-1.1,0.4-2.8-0.4-3.3,0.7l0,21.2c0,1.3,0.1,2.7,0.5,4
			c0.7,1,3.9,0.6,4.2,0.8c0,0.5,0,1.1,0,1.5l-14.5-0.1c-0.1-0.4,0-1.1,0-1.6c0.9-0.1,2.4,0.2,3.1-0.5l0-1.8l0-19.9
			c-0.1-1.3-0.1-2.8-0.7-3.8c-1.1-0.7-2.5-0.3-3.8-0.5c-0.2-0.4,0-1-0.1-1.5l0.2-0.1L255.7,226.9L255.7,226.9z"/>
		<path class="st0" d="M271,226.9c0.1,0.4,0.2,1.3-0.1,1.6c-0.9,0-2-0.1-2.8,0.1c-0.2,0.1-0.2,0.5-0.1,0.7l10,19.1l0.2,0.1l0.3-0.3
			l7.3-14.7c0.6-1.4,1.2-2.7,1.3-4.3c0-0.3-0.4-0.4-0.6-0.5c-1.1-0.2-2.4,0-3.5-0.1c-0.2-0.4-0.2-1.3,0.1-1.6l10.6,0
			c0.3,0.6,0,0.9,0.1,1.5c-0.9,0.2-2-0.1-2.9,0.3l-1.3,2.4l-12.9,26.2c-0.2,0.3-0.7,0.4-1.1,0.2l-0.5-0.7l-12.2-23.9
			c-1.2-1.7-1.8-4.7-4.5-4.5c-0.5-0.1-1.3,0.2-1.3-0.4c0-0.4-0.2-1,0.2-1.2C261.7,226.9,266.4,226.9,271,226.9L271,226.9z"/>
		<path class="st0" d="M323.4,227.1c-0.1,1.5-0.4,3-0.7,4.4c-0.2,0.4-0.7,0.4-1,0.2c-0.6-0.4-0.4-1.5-1.4-1.6
			c-3.8-1.4-8.5-1.2-12.8-1.1c-0.3,0-0.3,0.3-0.4,0.5l0,9.9l0.2,0.2c3.5-0.1,7.1,0.2,10.3-0.5c1-0.6,0.6-1.9,0.7-2.9
			c0.6-0.1,1.4-0.2,1.8,0.1v8c-0.5,0.2-1.2,0.1-1.8,0c-0.3-0.6,0.3-1.9-0.6-2.4c-2.5-0.8-5.7-0.3-8.3-0.6l-2.3,0.1l-0.2,0.4
			c0.2,3.1-0.2,8,0.5,12c0.3,1.3,1.8,0.9,2.7,1c3.9,0,7.8,0,11.3-1.2c1.3-0.2,1.8-2.2,3.3-1.8c0.4,0.5,0,1.2,0,1.8l-1.1,3.2
			l-0.4,0.1l-26.1-0.1c0-0.6,0-1,0-1.6c1.1-0.2,3.1,0.6,3.3-1l-0.1-22.8c-0.4-0.9,0-2.1-1.1-2.5c-1.1-0.3-2.2-0.1-3.4-0.2
			c-0.2-0.4-0.1-1.1-0.1-1.6l0.4-0.1L323.4,227.1L323.4,227.1z"/>
		<path class="st0" d="M346.3,232.8c-1.9-3.1-5.3-4-8.9-3.8c-0.2,0.1-0.4,0.1-0.5,0.3c0,4.3-0.1,8,0,12.1c3.4,0,7.2,0.2,9.3-2.7
			C347.4,237.1,347.1,234.6,346.3,232.8L346.3,232.8z M345.5,227.4c3.5,0.7,7.4,2.8,8.2,6.7c0.4,2.6-0.7,5-2.7,6.4
			c-1.5,1-3.3,1.4-5,1.9l0.2,0.4c3,3.5,5.5,7.5,8.9,10.7c1.1,1.1,2.4,1.8,4,1.7c0.2,0.4,0.1,1.1,0.1,1.6c-2.7,0.2-5.5,0.1-8.2,0
			c-1.5-0.1-2.5-1.8-3.5-2.8c-2.7-3.4-4.9-7.1-7.5-10.7c-1,0-2.1-0.1-3.1,0c-0.2,2.9-0.1,6,0,9c0.2,0.9,0,2.2,1.1,2.7
			c1.1,0.2,2.4,0.1,3.5,0.2c0,0.8,0,1,0.1,1.6l-14.6,0c0-0.4-0.1-1.1-0.1-1.6c0.9-0.2,2.2,0.1,3.1-0.3l0.2-1l-0.1-21.8
			c-0.3-0.9,0.1-2.7-1.1-3.3c-1-0.3-2.3,0-3.4-0.2c-0.2-0.4-0.1-1.1-0.1-1.5l0.3-0.2C332.3,227.3,339.1,226.6,345.5,227.4
			L345.5,227.4z"/>
		<path class="st0" d="M399.8,227.2c0.2,0.4,0.1,1,0.1,1.5c-1,0.5-2.8-0.4-3.3,0.8l0,21c0,1.3,0.1,3.1,0.7,4.5
			c1.1,0.6,2.6,0.3,3.9,0.4l0,1.5l-0.2,0.1l-14.4,0c0-0.6-0.1-1,0-1.6c1.1-0.2,2.6,0.4,3.2-0.5l0.1-2.3l-0.1-17.9
			c0-1.7,0-3.4-0.4-4.9c-0.9-1.2-2.8-0.7-4.2-0.9c-0.1-0.5-0.1-1.1,0-1.6L399.8,227.2L399.8,227.2z"/>
		<path class="st0" d="M431.6,227.3l0.1,0.1c0.6,1.4,1.3,2.9,1.8,4.4c0,0.2-0.2,0.6-0.4,0.7c-1.2,0.2-1.3-1-2.2-1.5
			c-1.2-1-2.9-1.1-4.4-1.4c-1.9-0.2-3.9-0.4-5.9-0.3l-0.1,0.1l0.1,23.1c0.4,0.9,0,2.4,1.1,2.8c1.5,0.2,3.1,0,4.7,0.2
			c0,0.5,0,1.1,0,1.5l-17.5,0c-0.2-0.5-0.1-1.1,0-1.6c1.6-0.1,3.3,0.1,4.8-0.2c0.4-0.7,0.2-1.3,0.3-2.1l-0.2-23.8l-0.1-0.2
			c-3.4,0-6.7,0.1-9.5,1.2c-1.3,0.3-1.8,2.9-3.2,1.7c0.2-1.7,1-3.1,1.6-4.7c0.6-0.3,1.4,0,2.1-0.2l15.6,0.1L431.6,227.3L431.6,227.3
			z"/>
		<path class="st0" d="M448.5,227.4c0,0.5,0.2,1.2-0.1,1.6l-3,0.1c-0.3,0.3,0.2,0.6,0.2,0.9c2.6,3.9,5.2,7.8,7.9,11.7h0.2
			c2.5-3.7,4.9-7.4,6.9-11.3c0-0.4,0.4-0.9-0.1-1.2c-1.2-0.3-2.6,0-3.8-0.2c-0.2-0.4-0.1-1-0.1-1.5l0.2-0.1c3.7-0.1,6.7,0,10.4,0.1
			c0,0.5,0.2,1.2-0.1,1.6c-0.9-0.1-1.8,0-2.6,0.3l-1.4,1.8l-8.5,12.9l0,8.6c0.3,0.9,0,2.4,1.2,2.8c1.1,0.2,2.2,0.1,3.3,0.1
			c0,0.8,0.1,1.1,0,1.6l-14.5,0c0-0.5,0-1,0-1.6c1-0.2,2.2,0.1,3.1-0.2l0.2-0.5l0-10.4l-9.3-13.5c-0.6-0.6-1.1-1.5-2-1.8
			c-0.8-0.1-1.7,0-2.5-0.1c-0.1-0.6-0.1-1-0.1-1.5l0.2-0.2L448.5,227.4L448.5,227.4z"/>
		<g>
			<path class="st0" d="M465.4,263.1c-2.2,0-3.9-1.7-3.9-3.9c0-2.2,1.7-3.9,3.9-3.9c2.2,0,3.9,1.7,3.9,3.9
				C469.3,261.3,467.5,263.1,465.4,263.1z M465.4,255.9c-1.8,0-3.3,1.5-3.3,3.3c0,1.8,1.5,3.3,3.3,3.3c1.8,0,3.3-1.5,3.3-3.3
				C468.6,257.3,467.2,255.9,465.4,255.9z M463.7,257.1h1.9c1,0,1.4,0.6,1.4,1.1c0,0.7-0.5,1.2-1.2,1.2v0c0.4,0.1,0.6,0.5,1,1.1
				l0.5,0.8h-0.8l-0.4-0.7c-0.5-0.9-0.7-1.1-1.2-1.1h-0.4v1.8h-0.7V257.1z M465.3,258.9c0.5,0,0.9-0.2,0.9-0.6
				c0-0.4-0.3-0.6-0.8-0.6h-1.1v1.3H465.3z"/>
		</g>
	</g>
	<path class="st0" d="M210,38.2c-14.8,0-23.3,16.9-14.5,28.8l38.2,51.6l39.8-54h-22.4l-17.5,23.7l-21.8-29.4H284
		c1.3,4.5,2,9.3,2,14.2c0,28.9-23.4,52.3-52.3,52.3c-28.9,0-52.3-23.4-52.3-52.3c0-28.9,23.4-52.3,52.3-52.3c12.5,0,24,4.4,33,11.7
		h27.7C281.3,12.9,258.9,0,233.6,0c-40.3,0-73.1,32.7-73.1,73c0,40.3,32.7,73.1,73.1,73.1c40.3,0,73-32.7,73-73.1
		c0-12.6-3.2-24.5-8.8-34.8H210z"/>
	<g>
		<g>
			<polygon class="st0" points="155.7,278.1 153.6,278.1 150.1,286.6 146.4,278.1 143.4,278.1 149.6,292.4 150.5,292.4 154.7,282.6 
				158.8,292.4 159.7,292.4 165.9,278.1 162.9,278.1 159.2,286.6 155.7,278.1 			"/>
			<polygon class="st0" points="178.2,278.1 176.1,278.1 172.5,286.6 168.8,278.1 165.9,278.1 172.1,292.4 173,292.4 177.1,282.6 
				181.3,292.4 182.2,292.4 188.4,278.1 185.4,278.1 181.7,286.6 178.2,278.1 			"/>
			<polygon class="st0" points="200.7,278.1 198.6,278.1 195,286.6 191.3,278.1 188.4,278.1 194.6,292.4 195.5,292.4 199.6,282.6 
				203.8,292.4 204.7,292.4 210.9,278.1 207.9,278.1 204.2,286.6 200.7,278.1 			"/>
			<path class="st0" d="M212.4,288.7c-1,0-1.9,0.8-1.9,1.9c0,1,0.8,1.9,1.9,1.9c1,0,1.9-0.8,1.9-1.9
				C214.3,289.5,213.4,288.7,212.4,288.7L212.4,288.7z"/>
			<path class="st1" d="M229,278.1h-5.8c-3.8,0-6.1,1.8-6.1,4.8c0,1,0.3,1.9,0.8,2.6c0.5,0.8,1.3,1.3,2.3,1.8v0.1
				c-1.3,0.3-2.2,1.1-2.2,2c0,0.6,0.4,1.2,1.4,1.8c-2.4,0.6-3.5,1.8-3.5,3.9c0,2.5,2.7,4.3,6.5,4.3c4.2,0,6.6-1.7,6.6-4.5
				c0-1.8-1.1-3.3-4.1-3.9c-2.8-0.6-4.3-1-4.3-1.8c0-1.7,3.8-0.7,5.7-2.7c0.7-0.7,1.3-2,1.3-3.2c0-1.2-0.4-2-1.5-3.1h2.9V278.1
				L229,278.1z M225.1,283c0,1.5-1.1,2.6-2.7,2.6c-1.7,0-2.8-1-2.8-2.6c0-1.4,1.3-2.5,2.8-2.5C223.8,280.5,225.1,281.6,225.1,283
				L225.1,283z M226.2,295.1c0,1.3-1.4,2-3.9,2c-2.5,0-3.9-0.8-3.9-2.2c0-1.3,1.3-2.1,3.2-2.1C223.4,292.8,226.2,293.3,226.2,295.1
				L226.2,295.1z"/>
			<polygon class="st0" points="235.6,292.4 236.6,292.4 242.7,278.1 239.8,278.1 236.1,286.7 232.3,278.1 229.3,278.1 235.6,292.4 
							"/>
			<path class="st0" d="M253,279c-1.5-0.8-2.8-1.2-4.1-1.2c-2.8,0-4.6,1.4-4.6,3.8c0,3.8,6.6,4.8,6.6,6.8c0,1-0.9,1.5-2.1,1.6
				c-1.1,0-2.8-0.6-4.6-1.8v3c1.8,0.9,3.2,1.3,4.9,1.3c2.7,0,4.6-1.7,4.6-4.1c0-1.4-0.8-2.4-3.2-3.9c-2.5-1.4-3.4-2.2-3.4-2.8
				c0-0.8,0.7-1.3,1.8-1.3c1,0,2.5,0.4,4.1,1.5V279L253,279z"/>
			<path class="st1" d="M268.6,292.1v-14h-2.8v10c-0.9,1.3-2.1,2-3.3,2c-1.9,0-2.9-1.1-2.9-3.1v-8.9h-2.8v8.7c0,3.6,2,5.6,4.8,5.6
				c1.4,0,3-0.8,4.2-2.1v1.8H268.6L268.6,292.1z"/>
			<path class="st0" d="M274,288.7c-1,0-1.9,0.8-1.9,1.9c0,1,0.8,1.9,1.9,1.9c1,0,1.9-0.8,1.9-1.9C275.8,289.5,275,288.7,274,288.7
				L274,288.7z"/>
			<path class="st1" d="M291.1,288.1c-1.6,1.1-3.2,1.7-4.9,1.7c-2.7,0-4.3-1.4-4.7-4.2h9.9c0-5.2-2.4-7.7-6.1-7.7
				c-3.9,0-6.6,2.9-6.6,7.1c0,3.9,2.4,7.5,6.8,7.5c2.4,0,3.9-0.5,5.6-1.7V288.1L291.1,288.1z M281.5,283.7c0.4-2.2,1.7-3.5,3.8-3.5
				c2,0,3.2,1.3,3.3,3.5H281.5L281.5,283.7z"/>
			<path class="st1" d="M306.5,270.8h-2.8v7.6c-1.1-0.4-2-0.6-2.9-0.6c-4.1,0-7,2.9-7,7c0,4.5,2.6,7.4,6.8,7.4h5.9V270.8
				L306.5,270.8z M303.7,289.8h-2.8c-3.2,0-4.3-2-4.3-4.6c0-2.9,1.8-4.9,4.5-4.9c0.9,0,1.7,0.2,2.6,0.5V289.8L303.7,289.8z"/>
			<path class="st1" d="M322,292.1v-14h-2.8v10c-0.9,1.3-2.1,2-3.3,2c-1.9,0-2.9-1.1-2.9-3.1v-8.9h-2.8v8.7c0,3.6,2,5.6,4.8,5.6
				c1.4,0,3-0.8,4.2-2.1v1.8H322L322,292.1z"/>
		</g>
	</g>
</g>
</svg>
