<?xml version="1.0" standalone="no"?>
<!DOCTYPE svg PUBLIC "-//W3C//DTD SVG 20010904//EN"
 "http://www.w3.org/TR/2001/REC-SVG-20010904/DTD/svg10.dtd">
<svg version="1.0" xmlns="http://www.w3.org/2000/svg"
 width="467.000000pt" height="62.000000pt" viewBox="0 0 467.000000 62.000000"
 preserveAspectRatio="xMidYMid meet">

<g transform="translate(0.000000,62.000000) scale(0.100000,-0.100000)"
fill="#000000" stroke="none">
<path d="M20 306 l0 -296 45 0 45 0 2 220 3 219 170 -219 170 -220 43 0 42 0
0 295 0 295 -40 0 -40 0 -2 -222 -3 -223 -170 220 -171 220 -47 3 -47 3 0
-295z"/>
<path d="M690 305 l0 -295 215 0 215 0 0 45 0 45 -170 0 -170 0 0 80 0 80 145
0 145 0 0 45 0 45 -145 0 -145 0 0 80 0 80 170 0 170 0 0 45 0 45 -215 0 -215
0 0 -295z"/>
<path d="M1200 594 c0 -4 45 -69 100 -146 l99 -140 -50 -72 c-27 -39 -75 -106
-105 -148 l-55 -78 54 0 55 0 73 103 c39 56 75 105 78 109 4 4 42 -42 86 -102
l78 -110 54 0 c41 0 52 3 47 13 -7 11 -176 248 -195 273 -5 6 31 66 91 149 55
77 100 143 100 148 0 4 -23 7 -52 5 l-52 -3 -67 -94 c-38 -52 -72 -98 -77
-103 -6 -6 -38 32 -83 96 l-74 105 -52 1 c-29 0 -53 -3 -53 -6z"/>
<path d="M1760 555 l0 -45 95 0 95 0 0 -250 0 -250 45 0 45 0 0 250 0 250 95
0 95 0 0 45 0 45 -235 0 -235 0 0 -45z"/>
<path d="M2380 587 c-47 -24 -50 -44 -48 -295 l3 -234 28 -24 c27 -23 32 -24
208 -24 228 0 248 9 249 108 l0 52 -45 0 c-45 0 -45 0 -45 -35 l0 -35 -155 0
-155 0 0 205 0 205 154 0 155 0 3 -37 c3 -37 4 -38 46 -41 l42 -3 0 56 c0 49
-4 60 -29 86 l-29 29 -179 0 c-123 0 -186 -4 -203 -13z"/>
<path d="M2990 587 c-47 -24 -50 -44 -48 -295 l3 -234 28 -24 c28 -24 32 -24
222 -24 191 0 194 0 222 24 l28 24 0 246 c0 318 22 290 -238 294 -141 2 -199
-1 -217 -11z m370 -282 l0 -205 -165 0 -165 0 0 205 0 205 165 0 165 0 0 -205z"/>
<path d="M3590 305 l0 -295 45 0 45 0 0 115 0 116 91 -3 91 -3 51 -112 51
-113 48 0 c26 0 48 4 48 9 0 4 -23 57 -51 117 -28 59 -48 110 -43 111 43 15
72 45 83 86 17 68 14 156 -7 197 -30 62 -62 70 -269 70 l-183 0 0 -295z m362
188 c26 -24 25 -116 -2 -143 -18 -18 -33 -20 -145 -20 l-125 0 0 90 0 90 127
0 c104 0 130 -3 145 -17z"/>
<path d="M4190 305 l0 -295 45 0 45 0 0 110 0 110 146 0 c167 0 193 9 219 72
21 54 20 183 -3 228 -30 62 -62 70 -269 70 l-183 0 0 -295z m362 188 c13 -12
18 -31 18 -75 0 -99 1 -98 -155 -98 l-135 0 0 95 0 95 127 0 c104 0 130 -3
145 -17z"/>
</g>
</svg>
